<svg width="1052" height="358" viewBox="0 0 1052 358" xmlns="http://www.w3.org/2000/svg" xmlns:xlink="http://www.w3.org/1999/xlink"><defs><path id="a" d="M15.028 3.15H.413V.077h17.29-2.675V3.15z"/></defs><g fill="none" fill-rule="evenodd"><path d="M725.017 127.007h36.998v25.033h-36.998v-25.033z" fill="#E56E42"/><path d="M730.016 147.04h27.007v-15.034h-27.007v15.034zm-2.05-17.086h31.008v19.038h-31.01v-19.038zm-5.97-5.99h43.04v3.043h-43.04v-3.044zm0 27.976h43.04v5.112h-43.04v-5.112zm0 8.018h42.995v6.09h-42.994v-6.09zm1 8.896h40.995V190.9l-40.994.1v-22.146z" fill="#F9F8E8"/><path d="M719.978 157.052h47.082v2.906h-47.082v-2.906zm0 8.995h47.082v3.007h-47.082v-3.007zm2.07 28.995l-1.97-4.042h46.682l-1.87 4.042h-42.84z" fill="#DAD7C3"/><path d="M743.066 47.373v76.59h-18.15l18.15-76.59z" fill="#A6D097"/><path d="M743.066 47.373v76.59h18.95l-18.95-76.59z" fill="#7DA66E"/><path d="M721.948 194.942l43.043.1v13.03h-43.04v-13.13z" fill="#F9F8E8"/><path d="M723.048 208.073h40.943v137.902h-40.94V208.073z" fill="#E56E42"/><path d="M715.97 345.975h54.997v13.047H715.97v-13.047z" fill="#F9F8E8"/><path d="M743.066 123.963h21.97v3.144h-21.97v-3.144zm0 28.077h21.925v5.012h-21.923v-5.012zm0 7.418h21.925v6.59h-21.923v-6.59zm-.1 9.496h21.025V191.1h-21.023v-22.146zm.1 26.088h21.925v12.93h-21.923v-12.93z" fill="#DAD7C3"/><path d="M743.066 157.052h23.894v2.906h-23.894v-2.906zm0 8.995h23.994v2.907h-23.994v-2.907zm21.424 28.895l2.47-3.942h-23.894v3.942h21.425z" fill="#BBB7A5"/><path d="M736.344 174.43a2.144 2.144 0 0 0-4.285 0V191h4.285v-16.57zm6.13 0a2.144 2.144 0 0 0-2.143-2.146 2.15 2.15 0 0 0-2.15 2.146V191h4.295v-16.57zm6.13 0a2.148 2.148 0 0 0-2.143-2.146 2.15 2.15 0 0 0-2.15 2.146V191h4.295v-16.57zm6.13 0c0-1.185-.965-2.146-2.15-2.146s-2.143.96-2.143 2.146V191h4.295v-16.57z" fill="#69655C"/><path d="M747.307 139.562c0 2.374-1.942 4.3-4.338 4.3-2.398 0-4.34-1.926-4.34-4.3 0-2.374 1.942-4.298 4.34-4.298 2.394 0 4.336 1.924 4.336 4.298" fill="#F9F8E8"/><path d="M742.97 135.264v8.597c2.395 0 4.337-1.923 4.337-4.297s-1.942-4.298-4.338-4.298zm.096 210.71h28v13.048h-28v-13.047z" fill="#DAD7C3"/><path d="M742.966 50.914a2.14 2.14 0 0 1-2.137-2.14V42.35a2.14 2.14 0 0 1 4.278 0v6.42c0 1.184-.96 2.142-2.144 2.142z" fill="#F3BC53"/><path d="M111.025 368.848l-52.022-3.212 12.725-206.4 52.022 3.212-12.725 206.4" fill="#DAD7C3"/><path d="M118.636 134.523l-38.402-2.37-1.696 27.504 38.402 2.37 1.696-27.504" fill="#DAD7C3"/><path d="M121.985 191.07l-52.022-3.212.112-1.81 52.022 3.213-.112 1.81m1.653-26.814l-52.02-3.212.11-1.807 52.022 3.21-.112 1.81m-3.295-27.814l-42.04-2.595.112-1.808 42.04 2.596-.112 1.807" fill="#F9F8E8"/><path d="M75.84 186.405l1.206-19.583a2.042 2.042 0 1 0-4.077-.25l-1.21 19.583 4.078.25m5.552.343l1.208-19.583a2.042 2.042 0 0 0-4.078-.253l-1.208 19.582 4.078.252m5.55.343l1.208-19.582a2.043 2.043 0 1 0-4.077-.252l-1.206 19.583 4.078.25m5.55.343L93.7 167.85a2.042 2.042 0 0 0-4.078-.25l-1.207 19.58 4.077.25m5.55.346l1.208-19.583a2.043 2.043 0 1 0-4.077-.252l-1.208 19.586 4.078.25m5.55.344l1.208-19.584a2.042 2.042 0 1 0-4.076-.252l-1.207 19.583 4.078.252m5.55.342l1.207-19.584a2.042 2.042 0 1 0-4.08-.25l-1.206 19.582 4.078.252m5.552.342l1.207-19.583a2.043 2.043 0 1 0-4.077-.25l-1.208 19.583 4.078.252m5.55.342l1.208-19.583a2.043 2.043 0 1 0-4.077-.252l-1.207 19.583 4.076.252" fill="#918E83"/><path d="M120.332 217.882L68.31 214.67l.112-1.808 52.022 3.213-.112 1.807" fill="#F9F8E8"/><path d="M74.186 213.22l1.208-19.585a2.042 2.042 0 0 0-4.077-.252l-1.207 19.582 4.077.252m5.55.342l1.207-19.582a2.043 2.043 0 1 0-4.077-.25L75.66 213.31l4.077.25m5.55.344l1.208-19.583a2.042 2.042 0 1 0-4.077-.25l-1.208 19.58 4.078.252m5.552.344l1.206-19.582a2.042 2.042 0 1 0-4.077-.252l-1.21 19.583 4.08.25m5.55.345l1.207-19.584a2.043 2.043 0 1 0-4.078-.252l-1.21 19.584 4.078.25m5.552.344l1.208-19.583a2.043 2.043 0 1 0-4.077-.254l-1.205 19.583 4.077.25m5.55.345l1.207-19.584a2.042 2.042 0 0 0-4.078-.25l-1.21 19.584 4.08.252m5.55.34l1.208-19.582a2.043 2.043 0 0 0-4.078-.25l-1.207 19.582 4.077.25m5.552.344l1.206-19.583a2.042 2.042 0 1 0-4.077-.25l-1.207 19.582 4.078.25" fill="#918E83"/><path d="M118.68 244.695l-52.023-3.212.112-1.807 52.02 3.21-.11 1.81m1.652-26.814L68.31 214.67l.112-1.808 52.022 3.213-.112 1.807" fill="#F9F8E8"/><path d="M72.533 240.032l1.207-19.584a2.043 2.043 0 1 0-4.077-.252l-1.208 19.584 4.078.252m5.55.342l1.208-19.583a2.042 2.042 0 1 0-4.075-.25l-1.207 19.582 4.077.252m5.55.343l1.207-19.583a2.043 2.043 0 1 0-4.078-.252l-1.208 19.583 4.078.252m5.55.343l1.21-19.583a2.043 2.043 0 1 0-4.078-.25l-1.207 19.58 4.076.253m5.55.342l1.208-19.583a2.043 2.043 0 1 0-4.077-.254L90.66 241.15l4.077.252m5.55.343l1.208-19.583a2.043 2.043 0 1 0-4.077-.252l-1.208 19.583 4.078.252m5.55.343l1.208-19.584a2.043 2.043 0 0 0-4.078-.252l-1.207 19.584 4.08.252m5.55.342l1.207-19.583a2.043 2.043 0 1 0-4.078-.25l-1.21 19.582 4.08.252m5.55.34l1.208-19.582a2.044 2.044 0 0 0-4.078-.252l-1.207 19.583 4.077.254" fill="#918E83"/><path d="M117.026 271.508l-52.022-3.212.11-1.808 52.023 3.212-.11 1.808m1.653-26.813l-52.023-3.212.112-1.807 52.02 3.21-.11 1.81" fill="#F9F8E8"/><path d="M70.88 266.844l1.207-19.583a2.043 2.043 0 1 0-4.077-.25l-1.207 19.583 4.077.25m5.55.344l1.208-19.583a2.043 2.043 0 1 0-4.077-.252l-1.206 19.584 4.078.25m5.55.344l1.207-19.584a2.043 2.043 0 1 0-4.08-.25l-1.206 19.583 4.078.25m5.55.343l1.208-19.584a2.043 2.043 0 1 0-4.077-.253l-1.208 19.583 4.078.253m5.55.342l1.208-19.583a2.042 2.042 0 1 0-4.075-.252l-1.208 19.583 4.078.252m5.55.342l1.207-19.582a2.044 2.044 0 0 0-4.08-.252l-1.206 19.583 4.077.25m5.552.344l1.207-19.583a2.043 2.043 0 0 0-4.077-.25l-1.207 19.583 4.077.25m5.55.343l1.21-19.583a2.04 2.04 0 1 0-4.076-.252l-1.208 19.584 4.076.25m5.55.344l1.21-19.583a2.043 2.043 0 1 0-4.08-.252l-1.206 19.585 4.077.252" fill="#918E83"/><path d="M115.373 298.32l-52.022-3.21.114-1.808 52.022 3.21-.112 1.81m1.652-26.814l-52.022-3.212.11-1.808 52.023 3.212-.11 1.808" fill="#F9F8E8"/><path d="M69.227 293.657l1.207-19.583a2.043 2.043 0 1 0-4.077-.25l-1.208 19.582 4.076.25m5.552.344l1.207-19.583a2.043 2.043 0 1 0-4.078-.25l-1.207 19.58 4.078.253m5.552.343l1.206-19.583a2.044 2.044 0 1 0-4.077-.252l-1.21 19.583 4.08.254m5.55.34l1.207-19.582a2.043 2.043 0 1 0-4.077-.25l-1.208 19.583 4.078.25m5.55.343l1.208-19.583a2.043 2.043 0 0 0-4.078-.253l-1.207 19.583 4.077.252m5.55.343l1.21-19.582a2.043 2.043 0 0 0-4.08-.252l-1.205 19.583 4.077.25m5.55.343l1.208-19.582a2.044 2.044 0 0 0-4.078-.25l-1.207 19.583 4.077.25m5.55.343l1.21-19.583a2.042 2.042 0 1 0-4.078-.252l-1.207 19.586 4.077.25m5.55.344l1.207-19.585a2.042 2.042 0 1 0-4.075-.252l-1.207 19.583 4.077.252" fill="#918E83"/><path d="M113.72 325.134l-52.022-3.212.112-1.807 52.022 3.21-.112 1.81m1.653-26.815l-52.022-3.21.114-1.808 52.022 3.21-.112 1.81" fill="#F9F8E8"/><path d="M67.574 320.47l1.207-19.583a2.04 2.04 0 0 0-4.076-.25l-1.207 19.583 4.078.25m5.55.343l1.207-19.583a2.043 2.043 0 1 0-4.078-.252l-1.207 19.584 4.077.25m5.552.344l1.207-19.584a2.042 2.042 0 1 0-4.077-.25l-1.208 19.583 4.078.252m5.55.343l1.208-19.585a2.043 2.043 0 1 0-4.077-.253l-1.207 19.584 4.076.252m5.552.342l1.207-19.582a2.043 2.043 0 0 0-4.078-.252L85.7 321.59l4.078.25m5.55.344l1.208-19.583a2.042 2.042 0 1 0-4.078-.25l-1.208 19.58 4.078.252m5.552.344l1.207-19.583a2.044 2.044 0 1 0-4.078-.25l-1.21 19.58 4.077.253m5.553.344l1.207-19.584a2.043 2.043 0 1 0-4.077-.252l-1.207 19.583 4.077.252m5.55.342l1.208-19.583a2.043 2.043 0 1 0-4.077-.254l-1.206 19.583 4.078.25M88.487 160.273l1.23-19.96a3.7 3.7 0 1 0-7.385-.456l-1.23 19.958 7.385.457m16.495 1.02l.442-7.172a7.243 7.243 0 1 0-14.457-.893l-.443 7.172 14.458.893m2.008.124l1.23-19.96a3.702 3.702 0 0 1 7.388.458l-1.23 19.958-7.388-.456m-6.804 206.766l2.128-34.514a3.702 3.702 0 0 1 3.92-3.468 3.702 3.702 0 0 1 3.466 3.924l-2.127 34.513-7.387-.456m-9.433-.584l2.128-34.512a3.702 3.702 0 0 1 7.388.456l-2.127 34.513-7.386-.457m-9.434-.582l2.128-34.512a3.704 3.704 0 0 1 3.92-3.47 3.705 3.705 0 0 1 3.467 3.925l-2.128 34.513-7.386-.456m-9.432-.582l2.127-34.513a3.704 3.704 0 0 1 3.922-3.47 3.704 3.704 0 0 1 3.465 3.924l-2.127 34.513-7.387-.456m-9.433-.58l2.128-34.513a3.7 3.7 0 1 1 7.386.455l-2.13 34.512-7.386-.455" fill="#918E83"/><path d="M106.136 260.84l-.477 8.152 4.075.25.478-8.15-4.078-.25zm-2.066-80.97l-4.076-.153-.478 8.15 4.078.252.477-8.15" fill="#737067"/><path d="M100.164 335.214l.104-1.674a3.688 3.688 0 0 0-.66-2.348 4.827 4.827 0 0 0 .903-2.82l-.155-4.064 8.698.537-.073 1.88c0 1.378.325 2.68.905 3.83H109c-.422 0-.838.025-1.247.073a3.69 3.69 0 0 0-1.748-.437 3.702 3.702 0 0 0-3.524 2.58 10.797 10.797 0 0 0-2.315 2.445m8.955-12.18l-8.836-.545.595.036 1.206-19.583a2.044 2.044 0 0 0-2.64-2.08l-.136-3.534 10.78.663-.15 3.86c-.47.348-.79.894-.83 1.523l-1.207 19.583 1.218.074m-3.522-21.92c-1.07 0-1.97.836-2.037 1.92l-1.206 19.582 4.077.252 1.208-19.584a2.043 2.043 0 0 0-2.04-2.17m4.562-4.93l-5.38-.33 3.303.202 1.208-19.583a2.042 2.042 0 1 0-4.076-.252l-1.207 19.586-4.765-.295 3.292.204 1.208-19.582a2.044 2.044 0 1 0-4.08-.252l-.725 11.77-.145-3.772a4.85 4.85 0 0 0-.098-.978l-.005-.025c0-.004 0-.008-.003-.012l-.003-.01-.005-.025a4.87 4.87 0 0 0-.81-1.8l.32-5.237a2.045 2.045 0 0 0-2.04-2.17c-1.07 0-1.97.835-2.038 1.92l-.134 2.195a6.374 6.374 0 0 0-1.564-3.356c-.23-.44-.616-.79-1.09-.97a6.58 6.58 0 0 0-.49-.313l.198-3.19 20.097 1.24-.18 4.693a2.002 2.002 0 0 0-.184.727l-1.207 19.583.6.037m1.038-26.85l-1.46-.09 1.207-19.584a2.043 2.043 0 0 0-2.04-2.17c-1.07 0-1.97.834-2.036 1.918l-1.21 19.585-2.757-.17 1.283.078 1.207-19.583a2.043 2.043 0 0 0-1.912-2.166l-.127-.003c-1.07 0-1.97.836-2.037 1.92l-1.207 19.583-1.475-.093 1.208-19.582a2.044 2.044 0 0 0-1.913-2.167l-.128-.002c-1.07 0-1.97.834-2.038 1.918l-1.207 19.583-1.473-.09 1.207-19.585a2.044 2.044 0 0 0-1.815-2.158l.21-3.384 20.448 1.263a8.494 8.494 0 0 0-1.134 4.25l-.8 20.73m1.663-26.816l-1.473-.09 1.207-19.583a2.043 2.043 0 0 0-1.913-2.166l-.128-.002c-1.07 0-1.97.834-2.037 1.918l-1.21 19.583 1.035.063-2.508-.154 1.208-19.585a2.043 2.043 0 0 0-1.913-2.166 2.045 2.045 0 0 0-2.165 1.914l-1.207 19.583-2.947-.182 1.475.09 1.207-19.582a2.043 2.043 0 1 0-4.077-.252l-1.208 19.584-1.473-.09 1.207-19.584a2.047 2.047 0 0 0-1.817-2.16l.208-3.383 25.997 1.605-1.377 22.343c-.66.122-1.296.32-1.894.587l1.09-17.622a2.044 2.044 0 1 0-4.08-.252l-1.206 19.583M94.72 241.4l-1.926-.118 1.925.12m25.66-24.302l.064-1.025-1.85-.115 1.206-19.583a2.042 2.042 0 0 0-1.912-2.166l-.128-.002c-1.07 0-1.97.834-2.037 1.918l-1.207 19.583 2.645.162-7.42-.457 3.303.204 1.208-19.584a2.043 2.043 0 1 0-4.077-.25l-1.207 19.582-2.757-.17 1.283.08 1.207-19.585a2.045 2.045 0 0 0-1.914-2.165c-.043-.002-.085-.004-.128-.004-1.07 0-1.97.836-2.036 1.92l-1.208 19.583-1.473-.09 1.21-19.584a2.043 2.043 0 1 0-4.078-.254l-1.206 19.582 2.374.147-5.79-.36 1.94.12 1.21-19.583a2.046 2.046 0 0 0-1.818-2.158l.21-3.385 25.995 1.605.112-1.81-1.85-.113 1.206-19.583a2.043 2.043 0 1 0-4.077-.252l-1.208 19.583 2.89.18-7.666-.475 3.302.204 1.207-19.583a2.043 2.043 0 1 0-4.077-.25l-1.208 19.583-2.757-.17 1.285.08 1.207-19.584a2.042 2.042 0 0 0-2.043-2.17 2.04 2.04 0 0 0-2.036 1.917l-1.207 19.583-1.474-.09 1.207-19.584a2.042 2.042 0 1 0-4.077-.252l-1.207 19.583 2.78.172-4.254-.265 1.207-19.583a2.045 2.045 0 0 0-1.816-2.158l.208-3.384 25.996 1.606.113-1.808-3.37 54.652" fill="#A9A798"/><path d="M121.985 191.07l-25.996-1.606.11-1.807 1.942.12 4.253.262 1.298.08 1.473.09 2.794.172 2.758.17.776.047 7.665.473 1.185.073 1.85.114-.11 1.81m1.653-26.814l-25.996-1.605.11-1.805 7.23.446 6.272.388 3.123.193 9.373.58-.112 1.807" fill="#BEBFB1"/><path d="M98.043 187.776l-1.943-.12 1.334-21.62a2.042 2.042 0 0 1 1.816 2.157l-1.207 19.583m1.473.09l1.207-19.582a2.045 2.045 0 0 1 2.168-1.914 2.043 2.043 0 0 1 1.91 2.166l-.73 11.833-4.075-.254-.478 7.75m9.628.596l-1.284-.08-2.792-.172 1.207-19.583a2.044 2.044 0 0 1 2.037-1.918 2.045 2.045 0 0 1 2.042 2.168l-1.207 19.583m5.55.344l-3.303-.204-.776-.048 1.208-19.582a2.04 2.04 0 0 1 2.164-1.914 2.045 2.045 0 0 1 1.913 2.165l-1.207 19.585m5.55.342l-1.187-.073-2.89-.18 1.205-19.582a2.044 2.044 0 1 1 4.08.252l-1.21 19.583M96.39 214.59l-1.943-.12 1.333-21.622a2.042 2.042 0 0 1 1.817 2.158L96.39 214.59m5.55.342l-1.702-.105-2.374-.147 1.207-19.583a2.044 2.044 0 1 1 4.08.25l-1.208 19.583m5.55.345l-1.284-.08-2.794-.172 1.208-19.583a2.043 2.043 0 0 1 2.036-1.92c.043 0 .085.003.128.005a2.045 2.045 0 0 1 1.913 2.166l-1.21 19.586m5.552.34l-3.302-.203-.775-.047 1.207-19.583a2.044 2.044 0 0 1 2.165-1.915 2.045 2.045 0 0 1 1.913 2.166l-1.208 19.583m5.552.343l-1.433-.09-2.643-.162 1.207-19.583a2.043 2.043 0 1 1 4.077.253l-1.205 19.583" fill="#737067"/><path d="M120.332 217.882l-25.997-1.605.112-1.808 5.79.356 1.704.105 1.475.09 2.794.174 2.756.17.775.048 7.42.458 1.435.09 1.85.115-.112 1.807" fill="#BEBFB1"/><path d="M94.737 241.402h-.018l-1.927-.12 1.333-21.62a2.043 2.043 0 0 1 1.817 2.157l-1.206 19.58m5.55.345l-1.474-.09-2.603-.162 1.208-19.583a2.042 2.042 0 1 1 4.077.252l-1.207 19.583m5.55.343l-4.077-.252 1.21-19.584a2.044 2.044 0 0 1 4.077.252l-1.208 19.584m5.55.342l-3.044-.188-1.034-.064 1.207-19.583a2.042 2.042 0 0 1 4.076.253l-1.207 19.584m3.063.188l-1.59-.1 1.207-19.582a2.043 2.043 0 1 1 4.078.252l-1.087 17.622a8.53 8.53 0 0 0-2.606 1.807" fill="#737067"/><path d="M113.132 244.353l-20.45-1.263.112-1.808 1.925.12h.016l1.473.09 2.602.162 2.948.182 4.078.252 2.508.154 3.044.188 1.473.09 1.59.1c-.51.517-.955 1.1-1.32 1.733" fill="#BEBFB1"/><path d="M93.084 268.215l-1.943-.12 1.335-21.62a2.043 2.043 0 0 1 1.817 2.157l-1.206 19.583m5.548.342l-4.077-.25 1.207-19.584a2.044 2.044 0 0 1 2.165-1.915 2.045 2.045 0 0 1 1.91 2.167l-1.207 19.582m5.552.343l-1.283-.08-2.794-.17 1.207-19.584a2.045 2.045 0 0 1 2.037-1.92c.042 0 .085.003.128.005a2.043 2.043 0 0 1 1.912 2.168l-1.207 19.583m6.03-7.407l-4.08-.252.73-11.83a2.043 2.043 0 0 1 4.08.25l-.73 11.834" fill="#737067"/><path d="M111.127 271.144l-20.097-1.24.11-1.81 1.944.12 1.473.092 4.077.25 1.474.093 2.794.17 2.757.17 4.075.25 1.46.09-.07 1.813" fill="#BEBFB1"/><path d="M92.412 274.376a6.45 6.45 0 0 0-1.09-.97c.474.18.86.53 1.09.97m10.12 21.337l-3.29-.203-.306-7.863.726-11.77a2.044 2.044 0 0 1 2.164-1.913 2.045 2.045 0 0 1 1.913 2.167l-1.21 19.584m5.553.342l-3.302-.203-.773-.048 1.207-19.584a2.044 2.044 0 1 1 4.078.254l-1.207 19.583m2.075.127l-.603-.037 1.207-19.583c.016-.26.08-.504.182-.727l-.787 20.347" fill="#737067"/><path d="M109.052 324.845l-8.698-.537-.07-1.818 8.837.545-.067 1.81m1.037-26.85l-10.78-.666-.07-1.82 4.766.294.775.048 5.38.33-.07 1.81" fill="#BEBFB1"/><path d="M100.88 322.526l-.596-.036-.836-21.627a1.977 1.977 0 0 1 .726-.086 2.045 2.045 0 0 1 1.913 2.166l-1.208 19.583m5.55.344l-4.077-.253 1.207-19.583a2.044 2.044 0 0 1 2.164-1.914 2.043 2.043 0 0 1 1.913 2.166l-1.207 19.583m2.69.165l-1.217-.075 1.208-19.583c.04-.63.36-1.175.83-1.522l-.82 21.18m-4.138-161.745l-7.23-.446 7.23.446m9.395.58l-3.123-.193 3.123.192m-11.897 170.9a3.704 3.704 0 0 1 5.274-2.142 10.68 10.68 0 0 0-5.273 2.14" fill="#737067"/><path d="M116.94 162.028l-1.833-.113-.73-.046 2.563.157 1.584-25.697-1.584 25.698m-8.864-.548l-3.094-.19 2.73.168.364.022" fill="#5C90AC"/><path d="M116.94 162.028l-2.563-.16 1.23-19.956a3.7 3.7 0 1 0-7.385-.457l-1.232 19.96.723.043-2.73-.17.44-7.17a7.244 7.244 0 0 0-6.78-7.68l.695-11.292 19.186 1.185-1.584 25.7" fill="#A9A798"/><path d="M104.982 161.29l-7.23-.446.89-14.406a7.244 7.244 0 0 1 6.782 7.68l-.442 7.172m9.395.58l-4.362-.27-1.94-.12-.362-.022-.723-.044 1.23-19.96a3.702 3.702 0 0 1 3.922-3.466 3.703 3.703 0 0 1 3.466 3.924l-1.23 19.958" fill="#737067"/><g><path d="M940.436 340.938H974.2V277.1h-19.694c0 7.92-2.23 20.743-4.313 31.92-2.25 12.057-9.757 31.918-9.757 31.918" fill="#4E2B1B"/><g transform="translate(956.41 279.24)"><mask id="b" fill="#fff"><use xlink:href="#a"/></mask><path d="M.413.076h17.29V3.15H.413V.077z" fill="#703D23" mask="url(#b)"/></g><path d="M971.13 287.516h-14.787v-3.075h17.524-2.736v3.077m-.325 5.123h-14.968v-3.074h17.644-2.674v3.075m-.5 5.126h-15.24v-3.075h17.942-2.702v3.077m-.6 5.123H954.14v-3.074h18.336-2.77v3.075m-.638 5.126H953.14v-3.075h18.763-2.835v3.077m-.818 5.123h-16.38v-3.074h19.428-3.048v3.075m-.68 5.126h-16.745v-3.075h19.72-2.974v3.077m-.898 5.123h-17.238v-3.074h20.213-2.975v3.075m-1.025 5.126h-17.81v-3.075h20.82-3.01v3.077m-1.164 5.123h-18.45v-3.074h21.564-3.114v3.075m-1.1 5.126H944.33v-3.075h22.156-3.102v3.077" fill="#703D23"/><path d="M971.438 279.316h10.63v3.075h-10.63v-3.073zm-.308 5.124h10.937v3.076H971.13v-3.075zm-.325 5.126h11.262v3.075h-11.262v-3.073zm-.5 5.124h11.76v3.076h-11.76v-3.075zm-.598 5.126h12.36v3.075h-12.36v-3.073zm-.64 5.124h13v3.076h-13v-3.075zm-.817 5.126h13.817v3.075H968.25v-3.073zm-.68 5.124h14.497v3.076H967.57v-3.075zm-.898 5.126h15.395v3.075h-15.395v-3.073zm-1.025 5.124h16.42v3.076h-16.42v-3.075zm-1.164 5.126h17.584v3.075h-17.584v-3.073zm-1.1 5.124h18.684v3.076h-18.683v-3.075z" fill="#4E2B1B"/><path d="M950.586 274.95c-.18-14.29 15.767-25.98 35.627-26.114.113 0 .226.01.34.01v26.103h-35.967" fill="#447EA3"/><path d="M987.052 340.938V277.1h-12.906c0 7.92-1.404 20.743-2.715 31.92-1.416 12.057-6.14 31.918-6.14 31.918h21.763z" fill="#814025"/><path d="M964.988 340.938h21.064v18.01h-21.064v-18.01z" fill="#4C3F35"/><path d="M942.977 340.938h22.31v18.01h-22.31v-18.01z" fill="#2E2721"/><path d="M975.917 279.316h10.635v3.075h-10.635v-3.073zm-.307 5.124h10.942v3.076h-10.94v-3.075zm-.325 5.126h11.267v3.075h-11.267v-3.073zm-.5 5.124h11.767v3.076h-11.767v-3.075zm-.6 5.126h12.367v3.075h-12.366v-3.073zm-.638 5.124h13.005v3.076h-13.005v-3.075zm-.817 5.126h13.822v3.075H972.73v-3.073zm-.68 5.124h14.502v3.076H972.05v-3.075zm-.9 5.126h15.402v3.075h-15.4v-3.073zm-1.024 5.124h16.426v3.076h-16.426v-3.075zm-1.164 5.126h17.59v3.075h-17.59v-3.073zm-1.098 5.124h18.688v3.076h-18.688v-3.075z" fill="#A1582D"/><path d="M954.72 274.95h31.832v2.15H954.72v-2.15z" fill="#2E2721"/><path d="M968.962 345.903h6.955v12.945h-6.955v-12.945z" fill="#231C14"/><path d="M965.288 340.938h21.764v3.45h-21.764v-3.45z" fill="#3C322A"/><path d="M943.577 340.938h21.71v3.45h-21.71v-3.45z" fill="#221E19"/><path d="M1032.662 340.938h-33.757V277.1h19.687c0 7.92 2.23 20.743 4.313 31.92 2.256 12.057 9.757 31.918 9.757 31.918" fill="#4E2B1B"/><path d="M1016.283 282.39h-14.622v-3.074h-2.674 17.298v3.075m.478 5.126h-14.79v-3.075h-2.74 17.53v3.077m.498 5.123h-14.967v-3.074h-2.676 17.644v3.075m.773 5.126h-15.24v-3.075h-2.703 17.943v3.077m.925 5.123h-15.567v-3.074h-2.76 18.33v3.075m.997 5.126h-15.927v-3.075h-2.835 18.762v3.077m1.27 5.123h-16.38v-3.074h-3.047 19.428v3.075m1.045 5.126h-16.746v-3.075h-2.968 19.712v3.077m1.392 5.123h-17.238v-3.074h-2.975 20.215v3.075m1.595 5.126h-17.802v-3.075h-3.015 20.818v3.077m1.812 5.123h-18.456v-3.074h-3.115 21.573v3.075m1.697 5.126h-19.056v-3.075h-3.102 22.157v3.077" fill="#703D23"/><path d="M991.032 279.316h10.63v3.075h-10.63v-3.073zm0 5.124h10.94v3.076h-10.94v-3.075zm0 5.126h11.26v3.075h-11.26v-3.073zm0 5.124h11.76v3.076h-11.76v-3.075zm0 5.126h12.36v3.075h-12.36v-3.073zm0 5.124h12.998v3.076h-12.998v-3.075zm0 5.126h13.817v3.075h-13.82v-3.073zm0 5.124h14.495v3.076h-14.495v-3.075zm0 5.126h15.394v3.075h-15.394v-3.073zm0 5.124h16.426v3.076h-16.426v-3.075zm0 5.126h17.584v3.075h-17.584v-3.073zm0 5.124h18.682v3.076h-18.682v-3.075z" fill="#4E2B1B"/><path d="M1022.512 274.95c.187-14.29-15.767-25.98-35.627-26.114-.113 0-.22.01-.333.01v26.103h35.96" fill="#41A4BA"/><path d="M1007.817 340.938h-21.265V277.1h12.4c0 7.92 1.404 20.743 2.722 31.92 1.418 12.057 6.143 31.918 6.143 31.918" fill="#814025"/><path d="M985.952 341.138h22.065v17.81h-22.065v-17.81z" fill="#4C3F35"/><path d="M1007.817 340.938h22.204v18.11h-22.202v-18.11z" fill="#2E2721"/><path d="M986.552 279.316h10.63v3.075h-10.63v-3.073zm0 5.124h10.936v3.076h-10.936v-3.075zm0 5.126h11.262v3.075h-11.262v-3.073zm0 5.124h11.76v3.076h-11.76v-3.075zm0 5.126h12.36v3.075h-12.36v-3.073zm0 5.124h13v3.076h-13v-3.075zm0 5.126h13.817v3.075h-13.82v-3.073zm0 5.124h14.496v3.076h-14.496v-3.075zm0 5.126h15.395v3.075h-15.395v-3.073zm0 5.124h16.42v3.076h-16.42v-3.075zm0 5.126h17.584v3.075h-17.584v-3.073zm0 5.124h18.683v3.076h-18.683v-3.075z" fill="#A1582D"/><path d="M986.552 274.95h31.827v2.15h-31.83v-2.15z" fill="#2E2721"/><path d="M986.052 340.938h21.965v3.45h-21.965v-3.45z" fill="#3C322A"/><path d="M1007.817 340.938h21.704v3.45h-21.702v-3.45z" fill="#221E19"/><path d="M1044.79 219.377l-1.632-1.63-57.424 57.463 1.63 1.63 57.425-57.463" fill="#2E2721"/><path d="M1007.438 271.216l-7.228-7.233 44.58-44.606 7.227 7.233-44.58 44.606" fill="#F9F8E8"/><path d="M1046.666 226.39l-1.658-1.66 1.598-1.596 1.657 1.658-1.597 1.597zm-2.563 2.567l-1.657-1.66 1.59-1.596 1.658 1.66-1.59 1.598zm-2.57 2.566l-1.656-1.66 1.597-1.596 1.657 1.66-1.595 1.596zm-2.56 2.567l-1.66-1.66 1.6-1.596 1.656 1.658-1.6 1.598zm-2.57 2.567l-1.658-1.66 1.598-1.596 1.657 1.66-1.597 1.598zm-2.563 2.567l-1.657-1.66 1.597-1.596 1.658 1.658-1.598 1.598zm-2.57 2.567l-1.656-1.657 1.597-1.597 1.66 1.658-1.6 1.598zm-2.56 2.568l-1.658-1.658 1.597-1.6 1.655 1.66-1.597 1.597zm-2.564 2.567l-1.657-1.658 1.59-1.598 1.663 1.66-1.598 1.595zm-2.57 2.567l-1.656-1.657 1.597-1.598 1.658 1.66-1.598 1.596zm-2.56 2.568l-1.658-1.658 1.597-1.598 1.657 1.66-1.597 1.596zm-2.57 2.567l-1.657-1.66 1.595-1.596 1.657 1.66-1.597 1.596zm-2.562 2.566l-1.658-1.657 1.598-1.597 1.657 1.657-1.595 1.597zm-2.563 2.568l-1.655-1.657 1.59-1.597 1.658 1.658-1.59 1.598zm-2.567 2.57l-1.657-1.66 1.597-1.597 1.657 1.658-1.598 1.6zm-2.562 2.566l-1.657-1.66 1.598-1.597 1.658 1.66-1.597 1.596zm-2.57 2.566l-1.656-1.66 1.598-1.597 1.658 1.66-1.597 1.596zm45.433-39.875l.97-.97-1.83-1.832-.964-.96-1.658-1.66-.958-.96-1.81-1.81-.965.97 1.81 1.81-1.598 1.597-1.81-1.81-.972.97 1.81 1.81-1.597 1.598-1.81-1.812-.965.97 1.81 1.81-1.597 1.6-1.81-1.813-.97.97 1.81 1.81-1.59 1.6-1.81-1.812-.973.97 1.81 1.81-1.597 1.598-1.81-1.81-.965.97 1.81 1.81-1.597 1.6-1.81-1.813-.972.97 1.81 1.81-1.597 1.598-1.81-1.81-.967.968 1.81 1.81-1.597 1.6-1.81-1.812-.972.97 1.81 1.81-1.596 1.6-1.804-1.81-.97.967 1.81 1.81-1.598 1.598-1.81-1.81-.966.968 1.81 1.812-1.597 1.597-1.81-1.812-.973.97 1.81 1.81-1.597 1.598-1.81-1.81-.965.97 1.81 1.81-1.597 1.597-1.81-1.81-.97.97 1.81 1.81-1.598 1.597-1.805-1.81-.972.968 1.81 1.81-1.597 1.598-1.81-1.81-.965.97 1.805 1.81-1.59 1.598-1.81-1.812-.973.97 1.81 1.81-1.597 1.6-1.81-1.813-.965.97 1.81 1.81.958.96 1.66 1.66 2.787 2.793.972-.97-1.83-1.832 1.59-1.597 1.836 1.833.965-.97-1.83-1.833 1.598-1.597 1.83 1.833.972-.97-1.837-1.834 1.598-1.597 1.83 1.832.973-.968-1.83-1.833 1.597-1.597 1.83 1.832.965-.97-1.83-1.832 1.597-1.597 1.83 1.833.97-.97-1.83-1.834 1.592-1.598 1.837 1.834.965-.97-1.83-1.832 1.597-1.598 1.83 1.834.973-.97-1.837-1.833 1.597-1.596 1.837 1.833.965-.97-1.83-1.832 1.597-1.598 1.83 1.833.966-.97-1.83-1.832 1.597-1.597 1.83 1.834.972-.97-1.83-1.833 1.596-1.597 1.83 1.834.965-.97-1.83-1.832 1.597-1.598 1.83 1.833.972-.97-1.838-1.833 1.598-1.597 1.837 1.833.965-.97-1.83-1.833 1.597-1.597 1.83 1.833.97-.97-1.836-1.834 1.597-1.597 1.83 1.832.973-.97-1.83-1.834 1.597-1.597 1.83 1.833.964-.97-1.83-1.832 1.597-1.597 1.833 1.833z" fill="#BBB7A5"/><path d="M928.31 332.672l1.63 1.63 57.424-57.463-1.63-1.63-57.425 57.46" fill="#2E2721"/><path d="M965.66 280.833l7.23 7.233-44.58 44.606-7.228-7.233 44.58-44.608" fill="#F9F8E8"/><path d="M926.433 325.66l1.657 1.658-1.597 1.597-1.658-1.658 1.598-1.598zm2.57-2.568l1.656 1.66-1.6 1.597-1.657-1.66 1.598-1.6zm2.56-2.566l1.658 1.658-1.595 1.598-1.657-1.66 1.597-1.596zm2.563-2.567l1.664 1.656-1.597 1.598-1.657-1.658 1.59-1.598zm2.57-2.57l1.657 1.66-1.598 1.597-1.657-1.658 1.598-1.6zm2.562-2.566l1.657 1.66-1.597 1.596-1.657-1.658 1.6-1.597zm2.57-2.567l1.656 1.66-1.597 1.597-1.657-1.66 1.597-1.597zm2.56-2.566l1.66 1.66-1.6 1.596-1.656-1.658 1.597-1.598zm2.57-2.566l1.658 1.658-1.598 1.597-1.657-1.66 1.6-1.596zm2.563-2.567l1.66 1.658-1.598 1.598-1.657-1.66 1.598-1.596zm2.564-2.567l1.657 1.66-1.59 1.597-1.663-1.66 1.597-1.596zm2.57-2.566l1.656 1.66-1.598 1.596-1.657-1.658 1.597-1.598zm2.562-2.567l1.657 1.66-1.597 1.596-1.658-1.658 1.598-1.598zm2.57-2.567l1.656 1.66-1.596 1.596-1.658-1.658 1.598-1.598zm2.56-2.567l1.658 1.66-1.597 1.597-1.657-1.66 1.596-1.597zm2.563-2.566l1.657 1.658-1.59 1.598-1.658-1.66 1.59-1.596zm2.57-2.567l1.656 1.658-1.598 1.598-1.657-1.66 1.6-1.596zm-45.43 39.874l-.974.97 1.837 1.832 3.574 3.58 1.81 1.81.972-.97-1.81-1.81 1.59-1.598 1.81 1.812.97-.97-1.81-1.81 1.598-1.6 1.81 1.812.966-.97-1.81-1.81 1.597-1.598 1.81 1.81.973-.968-1.81-1.81 1.597-1.598 1.81 1.81.964-.97-1.81-1.81 1.597-1.597 1.81 1.813.974-.97-1.81-1.81 1.597-1.598 1.805 1.81.972-.97-1.81-1.81 1.597-1.597 1.81 1.81.965-.97-1.81-1.81 1.596-1.597 1.81 1.81.972-.967-1.81-1.81 1.597-1.598 1.81 1.81.965-.97-1.81-1.81 1.596-1.597 1.81 1.81.972-.97-1.81-1.81 1.597-1.597 1.804 1.81.97-.97-1.81-1.81 1.597-1.596 1.81 1.81.965-.97-1.803-1.81 1.59-1.597 1.81 1.81.97-.968-1.81-1.81 1.598-1.6 1.81 1.81.965-.97-1.81-1.81 1.597-1.597 1.81 1.81.972-.968-1.81-1.81 1.597-1.6 1.81 1.812.965-.97-1.81-1.81 1.597-1.597 1.81 1.81.966-.97-1.805-1.81-.965-.96-2.616-2.62-1.83-1.833-.972.97 1.837 1.832-1.598 1.596-1.83-1.833-.973.97 1.83 1.832-1.597 1.598-1.83-1.834-.966.97 1.83 1.832-1.597 1.598-1.83-1.832-.972.97 1.83 1.832-1.59 1.598-1.837-1.833-.964.97 1.83 1.832-1.597 1.597-1.83-1.832-.973.97 1.837 1.832-1.596 1.597-1.837-1.83-.965.97 1.83 1.832-1.598 1.598-1.83-1.833-.965.97 1.83 1.833-1.598 1.597-1.83-1.833-.972.97 1.83 1.832-1.597 1.598-1.83-1.833-.965.97 1.83 1.832-1.596 1.598-1.83-1.832-.972.97 1.837 1.832-1.6 1.598-1.836-1.834-.964.97 1.83 1.833-1.598 1.598-1.83-1.834-.972.97 1.837 1.833-1.597 1.597-1.83-1.834-.972.97 1.83 1.832-1.597 1.598-1.83-1.833-.965.97 1.83 1.832-1.597 1.598-1.83-1.833-.972.97 1.837 1.832-1.597 1.598-1.837-1.833-.966.97 1.83 1.833-1.597 1.597-1.83-1.833z" fill="#BBB7A5"/><path d="M1043.158 334.3l1.63-1.628-57.424-57.462-1.63 1.63 57.424 57.46" fill="#2E2721"/><path d="M991.358 296.93l7.228-7.235 44.572 44.606-7.228 7.236-44.572-44.606" fill="#F9F8E8"/><path d="M1036.15 336.18l1.657-1.657 1.597 1.597-1.657 1.658-1.597-1.597zm-2.563-2.566l1.658-1.66 1.597 1.6-1.657 1.657-1.598-1.595zm-2.57-2.567l1.66-1.66 1.596 1.6-1.657 1.657-1.598-1.597zm-2.56-2.567l1.656-1.66 1.597 1.6-1.657 1.658-1.597-1.598zm-2.563-2.567l1.657-1.658 1.59 1.597-1.655 1.66-1.59-1.6zm-2.57-2.567l1.658-1.658 1.597 1.598-1.66 1.658-1.597-1.598zm-2.562-2.567l1.657-1.66 1.596 1.6-1.658 1.656-1.598-1.598zm-2.57-2.568l1.658-1.66 1.598 1.598-1.658 1.66-1.597-1.597zm-2.56-2.567l1.656-1.66 1.597 1.6-1.657 1.658-1.597-1.598zm-2.564-2.567l1.657-1.66 1.59 1.598-1.656 1.658-1.593-1.597zm-2.57-2.568l1.658-1.658 1.598 1.597-1.657 1.66-1.598-1.6zm-2.56-2.567l1.656-1.658 1.597 1.597-1.655 1.66-1.597-1.6zm-2.57-2.566l1.657-1.66 1.597 1.597-1.657 1.66-1.597-1.598zm-2.563-2.568l1.658-1.66 1.597 1.6-1.657 1.656-1.598-1.598zm-2.57-2.568l1.665-1.66 1.59 1.6-1.656 1.657-1.598-1.598zm-2.56-2.567l1.656-1.66 1.6 1.6-1.658 1.657-1.596-1.597zm-2.564-2.567l1.66-1.658 1.597 1.598-1.657 1.66-1.6-1.6zm39.85 45.46l.964.97 1.83-1.832.966-.96 1.656-1.66.958-.96 1.81-1.81-.97-.97-1.81 1.81-1.6-1.596 1.812-1.81-.965-.97-1.81 1.81-1.596-1.597 1.81-1.81-.97-.97-1.812 1.81-1.59-1.596 1.804-1.813-.965-.97-1.81 1.812-1.597-1.6 1.81-1.81-.965-.97-1.81 1.812-1.598-1.598 1.81-1.81-.972-.97-1.81 1.81-1.598-1.597 1.81-1.81-.965-.97-1.81 1.81-1.597-1.596 1.81-1.81-.972-.97-1.81 1.812-1.59-1.6 1.803-1.81-.967-.97-1.81 1.81-1.598-1.596 1.81-1.81-.97-.97-1.805 1.81-1.596-1.597 1.81-1.81-.972-.97-1.81 1.81-1.597-1.597 1.81-1.81-.965-.97-1.81 1.81-1.598-1.596 1.81-1.81-.97-.97-1.81 1.81-1.592-1.597 1.804-1.81-.965-.97-1.813 1.81-1.597-1.597 1.81-1.81-.97-.97-1.804 1.81-1.597-1.597 1.81-1.81-.974-.97-1.81 1.81-1.597-1.597 1.81-1.812-.966-.97-1.81 1.812-1.598-1.598 1.81-1.81-.97-.97-1.812 1.81-.958.96-1.657 1.66-.96.96-1.83 1.833.965.97 1.83-1.833 1.598 1.6-1.83 1.832.97.97 1.83-1.835 1.6 1.598-1.838 1.833.972.968 1.83-1.833 1.597 1.598-1.83 1.833.965.97 1.836-1.832 1.597 1.597-1.837 1.832.972.97 1.83-1.833 1.597 1.596-1.83 1.833.964.97 1.837-1.834 1.59 1.596-1.83 1.833.972.97 1.83-1.834 1.597 1.597-1.83 1.833.965.97 1.83-1.834 1.597 1.597-1.83 1.832.97.97 1.83-1.834 1.6 1.597-1.838 1.834.97.97 1.832-1.835 1.597 1.597-1.83 1.834.966.97 1.837-1.834 1.59 1.598-1.83 1.832.972.97 1.83-1.833 1.597 1.596-1.83 1.833.965.97 1.83-1.835 1.598 1.598-1.83 1.834.97.97 1.832-1.834 1.597 1.598-1.837 1.834.972.97 1.83-1.833 1.596 1.6-1.83 1.832.965.97 1.838-1.834 1.59 1.598-1.83 1.832.97.97 1.83-1.833 1.6 1.598-1.832 1.833z" fill="#BBB7A5"/><path d="M929.94 217.747l-1.63 1.63 57.424 57.462 1.63-1.63-57.424-57.464" fill="#2E2721"/><path d="M981.747 255.12l-7.228 7.233-44.58-44.606 7.227-7.233 44.58 44.606" fill="#F9F8E8"/><path d="M936.948 215.868l-1.657 1.66-1.595-1.6 1.657-1.657 1.598 1.6zm2.563 2.567l-1.655 1.658-1.59-1.597 1.656-1.658 1.59 1.597zm2.57 2.567l-1.656 1.658-1.598-1.597 1.658-1.658 1.597 1.597zm2.563 2.567l-1.657 1.657-1.597-1.598 1.656-1.66 1.597 1.598zm2.57 2.564l-1.658 1.66-1.597-1.598 1.657-1.66 1.597 1.598zm2.562 2.567l-1.658 1.66-1.597-1.597 1.656-1.66 1.598 1.598zm2.562 2.568l-1.657 1.658-1.592-1.598 1.657-1.658 1.59 1.597zm2.57 2.567l-1.658 1.658-1.598-1.598 1.658-1.658 1.597 1.597zm2.562 2.566l-1.66 1.66-1.596-1.6 1.657-1.656 1.6 1.597zm2.57 2.568l-1.66 1.658-1.597-1.597 1.657-1.66 1.597 1.6zm2.56 2.567l-1.657 1.658-1.598-1.597 1.658-1.66 1.597 1.6zm2.562 2.567l-1.656 1.658-1.59-1.597 1.657-1.66 1.59 1.6zm2.57 2.567l-1.657 1.66-1.597-1.6 1.657-1.66 1.597 1.6zm2.563 2.566l-1.657 1.66-1.598-1.598 1.658-1.66 1.597 1.597zm2.57 2.567l-1.658 1.658-1.598-1.596 1.657-1.658 1.597 1.597zm2.56 2.567l-1.656 1.66-1.598-1.598 1.657-1.658 1.596 1.597zm2.57 2.568l-1.657 1.658L974.74 257l1.656-1.66 1.597 1.598zm-39.847-45.46l-.97-.97-1.832 1.833-.958.96-1.657 1.66-.965.96-1.81 1.81.97.97 1.81-1.81 1.6 1.598-1.812 1.81.966.97 1.81-1.81 1.596 1.597-1.81 1.81.972.97 1.81-1.81 1.597 1.597-1.81 1.81.965.97 1.81-1.81 1.597 1.597-1.81 1.81.97.97 1.81-1.81 1.592 1.596-1.806 1.812.965.97 1.81-1.812 1.597 1.597-1.81 1.812.965.97 1.81-1.81 1.597 1.596-1.81 1.81.97.97 1.81-1.81 1.6 1.598-1.81 1.81.963.97 1.81-1.81 1.598 1.597-1.81 1.81.97.97 1.813-1.81 1.59 1.597-1.803 1.81.966.97 1.81-1.812 1.597 1.598-1.81 1.81.972.97 1.803-1.81 1.598 1.596-1.81 1.81.97.97 1.81-1.81 1.6 1.597-1.812 1.81.966.97 1.81-1.81 1.597 1.597-1.81 1.81.972.97 1.81-1.81 1.595 1.597-1.81 1.81.965.97 1.81-1.81 1.6 1.597-1.812 1.81.972.97 1.804-1.81 1.597 1.597-1.81 1.81.973.97 1.81-1.81.96-.96 1.656-1.66.96-.96 1.835-1.832-.972-.97-1.83 1.833-1.598-1.597 1.83-1.832-.964-.97-1.836 1.834-1.598-1.597 1.837-1.832-.97-.97-1.832 1.834-1.596-1.597 1.83-1.834-.965-.97-1.838 1.834-1.59-1.597 1.83-1.834-.97-.97-1.83 1.833-1.598-1.597 1.83-1.833-.965-.97-1.83 1.833-1.6-1.597 1.83-1.834-.97-.97-1.83 1.834-1.6-1.598 1.838-1.834-.972-.97-1.83 1.834-1.597-1.597 1.83-1.834-.966-.97-1.837 1.834-1.59-1.598 1.83-1.833-.972-.97-1.83 1.834-1.598-1.598 1.83-1.833-.965-.97-1.83 1.833-1.596-1.598 1.83-1.833-.972-.97-1.83 1.832-1.597-1.598 1.837-1.833-.972-.97-1.83 1.835-1.598-1.598 1.83-1.833-.964-.97-1.837 1.833-1.59-1.597 1.83-1.832-.97-.97-1.832 1.833-1.596-1.595 1.83-1.833-.964-.968-1.83 1.833-1.597-1.597 1.83-1.834-.973-.97-1.83 1.834-1.598-1.597 1.836-1.833z" fill="#BBB7A5"/><path d="M990.512 276.024a3.963 3.963 0 0 1-7.926 0 3.968 3.968 0 0 1 3.966-3.967c2.19 0 3.96 1.776 3.96 3.967" fill="#4C3F35"/><path d="M988.39 276.024a1.84 1.84 0 1 1-3.677 0 1.84 1.84 0 0 1 3.675 0" fill="#447EA3"/><path d="M977.947 294.99h6.016v9.95h-6.016v-9.95z" fill="#BBB7A5"/><path d="M978.932 295.967h3.84v7.697h-3.84v-7.697z" fill="#447EA3"/><path d="M991.95 320.016h6.024v10.15h-6.023v-10.15z" fill="#BBB7A5"/><path d="M992.842 321.592h3.84v7.697h-3.84v-7.7z" fill="#447EA3"/></g><g><path d="M365.046 1.248v27.788c0 .61.494 1.106 1.104 1.106v-30c-.61 0-1.104.496-1.104 1.106" fill="#59534A"/><path d="M366.028 28.307l.122.005v6.556h-6.614a6.556 6.556 0 0 1 6.492-6.56m-6.488 11.18c-1.794 0-3.246 1.752-3.246 3.546h9.856v-3.547h-6.61zm-6.01 245.075c2.035-8.31 4.746-25.595 4.746-25.595h7.874V46.974h-8.038s-.895 209.633-26.822 256.334h-7.322v20.54l-23.877 48.126h22.43s7.02-37.62 43.63-37.62v-30.46h-17.7s3.05-11.023 5.08-19.33z" fill="#6B6357"/><path d="M358.11 47.174l-1.973-4.24h10.013v4.24h-8.04zm1.43-12.306h6.61v5.12h-6.61v-5.12zm-14.502 201.18h21.012v7.964h-21.012v-7.964zm-22.07 66.96h43.182v13.058h-43.182v-13.058z" fill="#59534A"/><path d="M367.255 1.248v27.788c0 .61-.495 1.106-1.105 1.106v-30c.61 0 1.105.496 1.105 1.106" fill="#484239"/><path d="M366.272 28.307l-.122.005v6.556h6.615a6.557 6.557 0 0 0-6.493-6.56m6.488 11.18c1.794 0 3.247 1.752 3.247 3.546H365.95v-3.547h6.81zm6.01 245.075c-2.035-8.31-4.746-25.595-4.746-25.595h-8.074V46.974h8.24s.894 209.633 26.82 256.334h7.322v20.54l23.877 48.126h-22.43s-7.22-37.62-43.832-37.62v-30.46h17.902s-3.05-11.023-5.083-19.33z" fill="#59534A"/><path d="M374.19 47.174l1.973-4.24H365.95v4.24h8.24zm-8.04-12.306h6.61v5.12h-6.61v-5.12zm0 201.18h21.812v7.964H366.15v-7.964zm0 66.96h42.782v13.058H366.15v-13.058z" fill="#484239"/></g><g><path d="M22.7 155.162c7.944.015 10.262 5.905 10.262 5.905s4.054-1.497 7.41 1.17c4.404 3.497 3.483 6.838 3.483 6.838s6.458 1.17 6.445 8c-.012 5.85-4.418 6.734-5.69 6.985H10.89c-2.542-.004-9.636-.51-9.617-9.812.02-10.194 9.868-10.596 9.868-10.596s3.62-8.505 11.56-8.49z" fill="#E2ECEF"/><path d="M22.7 154.962c1.166.002 2.376.356 3.308.574v28.524H10.89c-2.542-.004-9.936-.51-9.917-9.812.02-10.194 10.168-10.596 10.168-10.596s3.62-8.705 11.56-8.69z" fill="#FFF"/><path d="M784.363 121.958c5.258.01 6.795 3.71 6.795 3.71s2.682-.99 4.905.776c2.922 2.315 2.31 4.528 2.31 4.528s4.673.774 4.666 5.297c-.01 3.873-3.324 4.624-4.17 4.79h-22.33c-1.682-.003-6.58-.404-6.57-6.563.015-6.752 6.738-7.118 6.738-7.118s2.395-5.433 7.653-5.423z" fill="#E2ECEF"/><path d="M784.363 122.058c.772 0 1.037-.197 1.656-.053v19.056h-9.48c-1.682 0-6.58-.202-6.57-6.36.015-6.753 6.738-6.72 6.738-6.72s2.395-5.93 7.653-5.92zm125.614 65.818c-3.588-2.275-7.608-.788-7.608-.788s-2.23-6.343-9.36-6.343-8.92 6.913-8.92 6.913-4.59-2.363-8.743.787c-4.153 3.15-2.576 7.744-2.576 7.744s-7.586.682-7.586 7.287c0 4.315 4.412 7.527 8.925 7.527 4.51 0 36.824.108 41.283.108 3.128 0 7.78-2.727 7.78-9.106 0-8.575-10.01-8.487-10.01-8.487s.393-3.37-3.187-5.645z" fill="#FFF"/><path d="M909.977 187.876c-3.588-2.275-7.608-.788-7.608-.788s-2.23-6.143-9.36-6.143l-.073-.195v30.203c9.777.03 20.08.06 22.456.06 3.128 0 7.787-2.627 7.787-9.006 0-8.575-10.015-8.487-10.015-8.487s.392-3.37-3.188-5.644zM499.432 42.553s2.597-6.107 8.3-6.097c5.704.01 7.368 4.24 7.368 4.24s2.91-1.074 5.322.84c3.16 2.512 2.5 4.91 2.5 4.91s4.636.84 4.627 5.745c-.01 4.2-3.174 5.125-4.087 5.305H499.25c-1.824-.003-6.918-.655-6.905-7.333.015-7.32 7.087-7.607 7.087-7.607" fill="#E2ECEF"/><path d="M499.432 42.553s2.597-6.107 8.3-6.097a9.672 9.672 0 0 1 2.23.27v20.768h-10.71c-1.826-.003-6.92-.655-6.907-7.333.015-7.32 7.087-7.606 7.087-7.606" fill="#FFF"/></g></g></svg>