<svg width="1007" height="391" viewBox="0 0 1007 391" xmlns="http://www.w3.org/2000/svg" xmlns:xlink="http://www.w3.org/1999/xlink"><defs><path d="M.13 56.56c.27-.196.542-.398.823-.605-.28.207-.554.41-.823.607zm19.05-6.812v-8.26c7.56-6.434 15.746-14.006 23.067-22.097l.355 8.717c-7.077 8.122-15.737 15.64-23.42 21.642zM50.736 9.195l.03-.04c.006-.01.015-.02.022-.03l.062-.08c.005-.01.014-.02.02-.03l.08-.106-.79-8.46.816 8.734-.24.01z" id="a"/></defs><g fill="none" fill-rule="evenodd"><path d="M609.236 85.18a2.125 2.125 0 0 0 2.123-2.126V81.02a2.123 2.123 0 0 0-4.25 0v2.035c0 1.173.95 2.125 2.125 2.125m0-41.764a2.124 2.124 0 0 0 2.124-2.126v-2.033a2.123 2.123 0 0 0-4.25 0v2.033c0 1.174.95 2.126 2.125 2.126" fill="#F3BB53"/><path d="M629.088 63.28h2.03a2.124 2.124 0 0 0 0-4.25h-2.03a2.125 2.125 0 0 0 0 4.25" fill="#F59F42"/><path d="M587.353 63.28h2.03a2.124 2.124 0 0 0 0-4.25h-2.03a2.125 2.125 0 0 0 0 4.25" fill="#F3BB53"/><path d="M623.208 78.142a2.125 2.125 0 1 0 3.003-3.005l-1.434-1.437a2.126 2.126 0 1 0-3.003 3.006l1.436 1.436" fill="#F59F42"/><path d="M593.697 48.612a2.126 2.126 0 1 0 3.003-3.006l-1.436-1.437a2.123 2.123 0 0 0-3.004 3.004l1.437 1.437m1.567 29.532l1.436-1.436a2.126 2.126 0 0 0-3.003-3.006l-1.437 1.437a2.123 2.123 0 0 0 3.004 3.005" fill="#F3BB53"/><path d="M624.775 48.612l1.436-1.437c.83-.83.83-2.177 0-3.006a2.12 2.12 0 0 0-3 0l-1.437 1.435a2.126 2.126 0 1 0 3.003 3.006" fill="#F59F42"/><path d="M609.236 45.634c-8.567 0-15.512 6.95-15.512 15.522s6.945 15.522 15.512 15.522V45.634z" fill="#F3BC53"/><path d="M625.123 61.156c0-8.573-7.57-15.522-16.137-15.522v31.044c8.568 0 15.762-6.95 15.762-15.522" fill="#F79E3C"/><path d="M263.988 386h56.003v15.948h-56V386z" fill="#82222B"/><path d="M319.89 386h56.105v15.948H319.89V386z" fill="#691B25"/><path d="M290.04 362.054h30.05V386.1h-30.05v-24.046z" fill="#AA2534"/><path d="M286.083 364.025h34.008v3h-34.006v-3zm-.1 6h34.008v3h-34.006v-3zm0 9.982h34.008v3h-34.006v-3z" fill="#82222B"/><path d="M267.705 359.334c5.517 1.132 11.66 2.62 22.633 2.62h29.753v-9.003h-69.297s7 4.353 16.913 6.385z" fill="#2E2721"/><path d="M250.992 350.05h69.1v2.9h-69.1v-2.9z" fill="#4C9168"/><path d="M253.277 342.177s4.762 3.42 16.357 3.42c13.355 0 20.705-12.522 20.705-12.522h29.85v16.975h-69.4l2.486-7.873zm48.675 32.803h6.126v3.07h-6.126v-3.07z" fill="#6ABD97"/><path d="M288.325 335.97h31.766v-2.895h-29.75s-.687 1.53-2.014 3.094" fill="#4C9168"/><path d="M319.99 361.954h28.954V386.1H319.99v-24.146z" fill="#82222B"/><path d="M319.79 364.025h34.11v3h-34.11v-3zm0 6H354v3h-34.21v-3zm0 9.982H354v3h-34.21v-3z" fill="#691B25"/><path d="M371.877 359.334c-5.517 1.132-11.66 2.62-22.633 2.62H319.99v-9.003h68.8s-7 4.353-16.913 6.385z" fill="#1E1A15"/><path d="M319.99 350.05h69v2.9h-69v-2.9z" fill="#366547"/><path d="M386.305 342.177s-4.762 3.42-16.357 3.42c-13.355 0-20.704-12.522-20.704-12.522H320.09v16.975h68.7l-2.485-7.873zm-55.3 32.803h7.025v3.07h-7.026v-3.07z" fill="#4C9168"/><path d="M351.257 335.97H320.09v-2.895h29.154s.686 1.53 2.013 3.094" fill="#366547"/><path d="M290.04 309.054h30.05V333.1h-30.05v-24.046z" fill="#AA2534"/><path d="M286.083 311.025h34.008v3h-34.006v-3zm-.1 6h34.008v3h-34.006v-3zm0 9.982h34.008v3h-34.006v-3z" fill="#82222B"/><path d="M267.705 306.334c5.517 1.132 11.66 2.62 22.633 2.62h29.753v-9.003h-69.297s7 4.353 16.913 6.385z" fill="#2E2721"/><path d="M250.992 297.05h69.1v2.9h-69.1v-2.9z" fill="#4C9168"/><path d="M253.277 289.177s4.762 3.42 16.357 3.42c13.355 0 20.705-12.522 20.705-12.522h29.85v16.975h-69.4l2.486-7.873zm48.675 32.803h6.126v3.07h-6.126v-3.07z" fill="#6ABD97"/><path d="M288.325 282.97h31.766v-2.895h-29.75s-.687 1.53-2.014 3.094" fill="#4C9168"/><path d="M319.99 308.954h28.954V333.1H319.99v-24.146z" fill="#82222B"/><path d="M319.79 311.025h34.11v3h-34.11v-3zm0 6H354v3h-34.21v-3zm0 9.982H354v3h-34.21v-3z" fill="#691B25"/><path d="M371.877 306.334c-5.517 1.132-11.66 2.62-22.633 2.62H319.99v-9.003h68.8s-7 4.353-16.913 6.385z" fill="#1E1A15"/><path d="M319.99 297.05h69v2.9h-69v-2.9z" fill="#366547"/><path d="M386.305 289.177s-4.762 3.42-16.357 3.42c-13.355 0-20.704-12.522-20.704-12.522H320.09v16.975h68.7l-2.485-7.873zm-55.3 32.803h7.025v3.07h-7.026v-3.07z" fill="#4C9168"/><path d="M351.257 282.97H320.09v-2.895h29.154s.686 1.53 2.013 3.094" fill="#366547"/><path d="M290.04 256.054h30.05V280.1h-30.05v-24.046z" fill="#AA2534"/><path d="M286.083 258.025h34.008v3h-34.006v-3zm-.1 6h34.008v3h-34.006v-3zm0 9.982h34.008v3h-34.006v-3z" fill="#82222B"/><path d="M267.705 253.334c5.517 1.132 11.66 2.62 22.633 2.62h29.753v-9.003h-69.297s7 4.353 16.913 6.385z" fill="#2E2721"/><path d="M250.992 244.05h69.1v2.9h-69.1v-2.9z" fill="#4C9168"/><path d="M253.277 236.177s4.762 3.42 16.357 3.42c13.355 0 20.705-12.522 20.705-12.522h29.85v16.975h-69.4l2.486-7.873zm48.675 32.803h6.126v3.07h-6.126v-3.07z" fill="#6ABD97"/><path d="M288.325 229.97h31.766v-2.895h-29.75s-.687 1.53-2.014 3.094" fill="#4C9168"/><path d="M319.99 255.954h28.954V280.1H319.99v-24.146z" fill="#82222B"/><path d="M319.79 258.025h34.11v3h-34.11v-3zm0 6H354v3h-34.21v-3zm0 9.982H354v3h-34.21v-3z" fill="#691B25"/><path d="M371.877 253.334c-5.517 1.132-11.66 2.62-22.633 2.62H319.99v-9.003h68.8s-7 4.353-16.913 6.385z" fill="#1E1A15"/><path d="M319.99 244.05h69v2.9h-69v-2.9z" fill="#366547"/><path d="M386.305 236.177s-4.762 3.42-16.357 3.42c-13.355 0-20.704-12.522-20.704-12.522H320.09v16.975h68.7l-2.485-7.873zm-55.3 32.803h7.025v3.07h-7.026v-3.07z" fill="#4C9168"/><path d="M290.04 203.054h30.05V227.1h-30.05v-24.046z" fill="#AA2534"/><path d="M286.083 205.025h34.008v3h-34.006v-3zm-.1 6h34.008v3h-34.006v-3zm0 9.982h34.008v3h-34.006v-3z" fill="#82222B"/><path d="M301.952 215.98h6.126v3.07h-6.126v-3.07z" fill="#6ABD97"/><path d="M319.99 202.954h28.954V227.1H319.99v-24.146z" fill="#82222B"/><path d="M319.79 205.025h34.11v3h-34.11v-3zm0 6H354v3h-34.21v-3zm0 9.982H354v3h-34.21v-3z" fill="#691B25"/><path d="M331.004 215.98h7.026v3.07h-7.026v-3.07z" fill="#4C9168"/><path d="M290.04 150.054h30.05V174.1h-30.05v-24.046z" fill="#AA2534"/><path d="M286.083 152.025h34.008v3h-34.006v-3zm-.1 6h34.008v3h-34.006v-3zm0 9.982h34.008v3h-34.006v-3z" fill="#82222B"/><path d="M301.952 162.98h6.126v3.07h-6.126v-3.07z" fill="#6ABD97"/><path d="M319.99 149.954h28.954V174.1H319.99v-24.146z" fill="#82222B"/><path d="M319.79 152.025h34.11v3h-34.11v-3zm0 6H354v3h-34.21v-3zm0 9.982H354v3h-34.21v-3z" fill="#691B25"/><path d="M331.004 162.98h7.026v3.07h-7.026v-3.07z" fill="#4C9168"/><path d="M351.257 229.97H320.09v-2.895h29.154s.686 1.53 2.013 3.094" fill="#366547"/><g><path d="M290.04 203.054h30.05V227.1h-30.05v-24.046z" fill="#AA2534"/><path d="M286.083 205.025h34.008v3h-34.006v-3zm-.1 6h34.008v3h-34.006v-3zm0 9.982h34.008v3h-34.006v-3z" fill="#82222B"/><path d="M267.705 200.334c5.517 1.132 11.66 2.62 22.633 2.62h29.753v-9.003h-69.297s7 4.353 16.913 6.385z" fill="#2E2721"/><path d="M250.992 191.05h69.1v2.9h-69.1v-2.9z" fill="#4C9168"/><path d="M253.277 183.177s4.762 3.42 16.357 3.42c13.355 0 20.705-12.522 20.705-12.522h29.85v16.975h-69.4l2.486-7.873zm48.675 32.803h6.126v3.07h-6.126v-3.07z" fill="#6ABD97"/><path d="M288.325 176.97h31.766v-2.895h-29.75s-.687 1.53-2.014 3.094" fill="#4C9168"/><path d="M319.99 202.954h28.954V227.1H319.99v-24.146z" fill="#82222B"/><path d="M319.79 205.025h34.11v3h-34.11v-3zm0 6H354v3h-34.21v-3zm0 9.982H354v3h-34.21v-3z" fill="#691B25"/><path d="M371.877 200.334c-5.517 1.132-11.66 2.62-22.633 2.62H319.99v-9.003h68.8s-7 4.353-16.913 6.385z" fill="#1E1A15"/><path d="M319.99 191.05h69v2.9h-69v-2.9z" fill="#366547"/><path d="M386.305 183.177s-4.762 3.42-16.357 3.42c-13.355 0-20.704-12.522-20.704-12.522H320.09v16.975h68.7l-2.485-7.873zm-55.3 32.803h7.025v3.07h-7.026v-3.07z" fill="#4C9168"/><path d="M351.257 176.97H320.09v-2.895h29.154s.686 1.53 2.013 3.094" fill="#366547"/></g><path d="M267.705 147.83c5.517 1.132 11.66 2.22 22.633 2.22h29.653v-9.003h-69.197s7 4.75 16.913 6.783z" fill="#2E2721"/><path d="M251.092 139.046h69.1v2h-69.1v-2z" fill="#4C9168"/><path d="M253.277 130.673s4.763 3.42 16.357 3.42c28.47 0 40.555-21.964 40.555-21.964h9.9v27.015h-69.3l2.486-8.473z" fill="#6ABD97"/><path d="M388.79 140.947s-7 4.85-16.913 6.883c-5.517 1.132-11.66 2.22-22.633 2.22H319.99v-9.103l68.8.1" fill="#1E1A15"/><path d="M320.09 139.046h68.9v2.1h-68.9v-2.1z" fill="#366547"/><path d="M314.016 107.05h5.975v5.08h-5.973v-5.08z" fill="#AA2534"/><path d="M310.19 111.93s-.58 1.453-1.784 3.098h11.485v-3.1l-9.7.2m76.115 18.545s-4.762 3.42-16.357 3.42c-28.47 0-40.555-21.964-40.555-21.964h-9.402v26.915h68.8l-2.484-8.373z" fill="#4C9168"/><path d="M319.79 107.05h6.176v4.98h-6.175v-4.98z" fill="#82222B"/><path d="M329.393 111.93s.58 1.453 1.783 3.098H319.79v-3.1l9.603.2" fill="#366547"/><path d="M320.09 106.52v-8.71c-2.402 0-4.65 1.95-4.65 4.355 0 2.405 2.248 4.354 4.65 4.354z" fill="#CD9C55"/><path d="M319.79 97.81v8.71a4.353 4.353 0 0 0 4.352-4.355 4.352 4.352 0 0 0-4.35-4.354" fill="#986E3F"/><path d="M320.09 97.81v-8.707c-2.402 0-4.65 1.95-4.65 4.354s2.248 4.354 4.65 4.354z" fill="#CD9C55"/><path d="M319.79 89.103v8.708a4.353 4.353 0 0 0 4.352-4.352 4.352 4.352 0 0 0-4.35-4.354" fill="#986E3F"/><path d="M320.09 89.103v-7.03c-1.94 0-3.812 1.572-3.812 3.514 0 1.942 1.873 3.516 3.813 3.516z" fill="#CD9C55"/><path d="M319.79 82.072v7.03a3.515 3.515 0 0 0 0-7.03" fill="#986E3F"/><path d="M320.09 82.072v-7.03c-1.94 0-3.812 1.572-3.812 3.514 0 1.942 1.873 3.516 3.813 3.516z" fill="#CD9C55"/><path d="M319.79 75.04v7.032a3.515 3.515 0 0 0 0-7.03" fill="#986E3F"/><path d="M320.09 75.04v-4.893c-1.35 0-2.745 1.095-2.745 2.447 0 1.35 1.396 2.447 2.746 2.447z" fill="#CD9C55"/><path d="M319.79 70.147v4.894a2.446 2.446 0 0 0 0-4.892" fill="#986E3F"/><path d="M320.09 70.147v-4.894c-1.35 0-2.745 1.095-2.745 2.447 0 1.35 1.396 2.447 2.746 2.447z" fill="#CD9C55"/><path d="M319.79 65.253v4.894a2.447 2.447 0 0 0 0-4.894" fill="#986E3F"/><g><path d="M685.124 117.8l12.15-29.825h19.253V117.8h-31.403z" fill="#69655C"/><path d="M687.075 123.824h29.452v16.294h-29.452v-16.294zm0 84.216h28.952v42.906h-28.952V208.04z" fill="#CD9C55"/><path d="M687.075 250.146h29.052v5.846h-29.052v-5.846z" fill="#8F6845"/><path d="M682.057 144.963h34.07v28.212h-34.07v-28.212z" fill="#D9B77F"/><path d="M682.457 173.075h34.07v27.91h-34.07v-27.91z" fill="#B29168"/><path d="M685.124 117.8h31.403v6.224h-31.403V117.8z" fill="#8F6845"/><path d="M687.767 115.005c-1.445-.014-2.628 1.238-2.64 2.796h5.232c-.015-1.532-1.164-2.78-2.594-2.794" fill="#CD9C55"/><path d="M692.98 115.005c-1.444-.014-2.628 1.238-2.64 2.796h5.236c-.014-1.532-1.165-2.78-2.596-2.794" fill="#CD9C55"/><path d="M698.218 115.005c-1.444-.014-2.63 1.238-2.642 2.796h5.238c-.014-1.532-1.165-2.78-2.596-2.794m5.238 0c-1.444-.015-2.63 1.237-2.642 2.795h5.238c-.014-1.532-1.165-2.78-2.596-2.794M708.694 115.005c-1.444-.014-2.63 1.238-2.642 2.796h5.238c-.014-1.532-1.165-2.78-2.596-2.794m5.238 0c-1.444-.015-2.63 1.237-2.642 2.795h5.237c-.013-1.532-1.164-2.78-2.595-2.794m-16.86-49.046h19.455v22.015h-19.454V65.96z" fill="#CD9C55"/><path d="M682.457 200.986l4.818 6.954h28.752v-6.954h-33.57z" fill="#8F6845"/><path d="M716.527 65.96h-19.454l-2.07-4.197h21.524v4.596" fill="#69655C"/><path d="M700.767 173.075h-4.106c.108-10.808 8.9-19.498 19.675-19.498h.114v4.068h-.075c-8.54 0-15.5 6.873-15.607 15.43" fill="#AB9166"/><path d="M700.767 173.085h-4.106v-.01h4.108v.01m15.4 19.875h-.013c-10.87-.1-19.594-9-19.494-19.875h4.108v.038h15.68-15.68c-.08 8.63 6.842 15.69 15.468 15.77h.006c.068 0 .134-.007.208-.01v4.064c-.094.004-.187.013-.28.013" fill="#8C7353"/><path d="M716.527 61.763H698.19c10.477-14.984 18.344-58.647 18.344-58.647l-.007 58.647" fill="#848175"/><path d="M700.54 70.958h3.122v17.017h-3.12V70.958zm7.19 0h3.12v17.017h-3.12V70.958zm7.213.032h3.122v16.42h-3.122V70.99zm-14.403 56.178h3.122v13h-3.12v-13zm7.19 0h3.12v13h-3.12v-13zm-14.37 0h3.12v13h-3.12v-13z" fill="#383631"/><path d="M682.057 145.163h6.58v27.912h-6.58v-27.912z" fill="#AB9166"/><path d="M682.457 173.075h6.18v27.91h-6.18v-27.91z" fill="#8C7353"/><path d="M687.075 255.992h28.952v43.106h-28.952v-43.106z" fill="#CD9C55"/><path d="M687.075 298.998h29.052v6.046h-29.052v-6.046z" fill="#8F6845"/><path d="M687.075 304.944h28.952v43.206h-28.952v-43.206z" fill="#CD9C55"/><path d="M686.975 348.05h29.252v4.946h-29.252v-4.946z" fill="#8F6845"/><path d="M687.075 352.896l29.252.1V396.3l-29.252-.1v-43.304z" fill="#CD9C55"/><path d="M716.02 173.123v-15.478c-8.618-.08-15.173 6.85-15.253 15.478h15.254z" fill="#F9F8E8"/><path d="M716.22 173.123h-15.453c-.08 8.63 6.842 15.69 15.468 15.77.093 0-.014-15.77-.014-15.77z" fill="#DAD7C3"/><path d="M747.85 117.8L735.7 87.976h-19.654V117.8h31.8z" fill="#514F48"/><path d="M716.048 123.824h29.95v16.294h-29.95v-16.294zm0 84.216h29.95v43.006h-29.95V208.04z" fill="#B0854B"/><path d="M716.048 250.146h29.95v6.046h-29.95v-6.046z" fill="#6B513B"/><path d="M716.048 144.963h34.97v28.212h-34.97v-28.212z" fill="#B29168"/><path d="M716.048 173.075h34.97v28.01h-34.97v-28.01z" fill="#997958"/><path d="M716.148 117.8h31.7v6.224h-31.7V117.8z" fill="#6B513B"/><path d="M745.206 115.005c1.445-.014 2.63 1.238 2.643 2.796h-5.234c.014-1.532 1.158-2.78 2.59-2.794" fill="#B0854B"/><path d="M739.995 115.005c1.444-.014 2.63 1.238 2.642 2.796H737.4c.013-1.532 1.164-2.78 2.595-2.794m-5.238 0c1.444-.015 2.63 1.237 2.642 2.795h-5.24c.014-1.532 1.165-2.78 2.596-2.794" fill="#B0854B"/><path d="M729.52 115.005c1.443-.014 2.628 1.238 2.64 2.796h-5.237c.014-1.532 1.165-2.78 2.596-2.794m-5.24 0c1.445-.015 2.63 1.237 2.643 2.795h-5.237c.013-1.532 1.164-2.78 2.595-2.794m-5.237 0c1.445-.015 2.63 1.237 2.643 2.795h-5.238c.013-1.532 1.164-2.78 2.595-2.794m-2.595-49.046h19.454v22.015h-19.454V65.96z" fill="#B0854B"/><path d="M750.517 200.986l-4.818 7.054h-29.653v-7.054h34.47zm0-55.824l-4.818-5.143h-29.653v5.14h34.47z" fill="#6B513B"/><path d="M682.458 145.162l4.817-5.143h29.252v5.14h-34.07z" fill="#8F6845"/><path d="M716.448 65.96h19.454l2.07-4.197h-21.524v4.596" fill="#514F48"/><path d="M736.314 173.075h-19.86v-19.497h.187c10.777 0 19.57 8.69 19.675 19.497" fill="#8C7353"/><path d="M736.314 173.085h-19.86v-.01h19.86v.01m-19.507 19.875c-.12 0-.233-.015-.353-.015v-19.86h19.86c.1 10.875-8.625 19.774-19.494 19.875h-.013" fill="#775F45"/><path d="M716.448 61.763h18.33C724.308 46.78 716.44 3.116 716.44 3.116l.008 58.647" fill="#69655C"/><path d="M729.313 70.958h3.12v17.117h-3.12V70.958zm-7.188 0h3.12v17.017h-3.12V70.958zm-7.215.032h3.122v17.02h-3.122V70.99zm14.403 56.178h3.12v13h-3.12v-13zm-7.188 0h3.12v13h-3.12v-13zm14.37 0h3.12v13h-3.12v-13zm-21.585.03h3.122v13h-3.122v-13z" fill="#383631"/><path d="M744.34 145.163h6.177v27.912h-6.176v-27.912z" fill="#8C7353"/><path d="M744.34 173.075h6.177v27.91h-6.176v-27.91z" fill="#775F45"/><path d="M740.022 208.04h5.877v42.006h-5.88V208.04z" fill="#8A683B"/><path d="M716.048 255.992h29.65v43.106h-29.65v-43.106z" fill="#B0854B"/><path d="M716.048 298.998h29.95v6.046h-29.95v-6.046z" fill="#6B513B"/><path d="M740.122 255.992h5.777v43.106h-5.78v-43.106z" fill="#8A683B"/><path d="M716.048 304.844h29.75v43.206h-29.75v-43.206z" fill="#B0854B"/><path d="M715.948 347.95h30.05v5.146h-30.05v-5.146z" fill="#6B513B"/><path d="M740.122 305.044H746v43.106h-5.878v-43.106z" fill="#8A683B"/><path d="M716.048 352.996h29.85V396.2h-29.85v-43.204z" fill="#B0854B"/><path d="M740.022 352.996H746v43.054h-5.978v-43.054z" fill="#8A683B"/><path d="M715.954 173.123v-15.478c8.62-.08 16.174 6.85 16.254 15.478h-16.254z" fill="#F9F8E8"/><path d="M716.054 188.88v-15.757h16.154c.08 8.63-7.242 15.688-15.868 15.77-.093 0-.193-.012-.286-.013z" fill="#DAD7C3"/><path d="M716.534.303a2.854 2.854 0 0 0-.052 5.71h.052V.303" fill="#CD9C55"/><path d="M716.534 6.014a2.855 2.855 0 1 0 .052-5.71h-.052v5.71" fill="#B0854B"/><path d="M730.817 173.252h-.1c0 3.922-1.584 7.472-4.153 10.042a14.147 14.147 0 0 1-10.037 4.16c-3.92 0-7.467-1.59-10.036-4.16a14.183 14.183 0 0 1-4.15-10.042c0-3.92 1.59-7.47 4.152-10.04a14.14 14.14 0 0 1 10.037-4.16c3.92 0 7.467 1.588 10.036 4.16a14.15 14.15 0 0 1 4.153 10.04h.2c0-7.953-6.444-14.4-14.39-14.4-7.947 0-14.39 6.447-14.39 14.4s6.443 14.4 14.39 14.4c7.946 0 14.39-6.447 14.39-14.4h-.1" fill="#69655C"/><path d="M727.696 173.252h-.1c0 3.06-1.238 5.828-3.242 7.832a11.03 11.03 0 0 1-7.827 3.244 11.04 11.04 0 0 1-7.827-3.244 11.042 11.042 0 0 1-3.24-7.832c0-3.058 1.237-5.827 3.24-7.832a11.04 11.04 0 0 1 7.827-3.244c3.055 0 5.824 1.24 7.827 3.244a11.043 11.043 0 0 1 3.242 7.832h.2c0-6.227-5.046-11.276-11.27-11.276-6.222 0-11.266 5.05-11.266 11.276 0 6.228 5.044 11.276 11.267 11.276s11.268-5.048 11.268-11.276h-.1" fill="#69655C"/><path d="M717.54 173.252a1.01 1.01 0 0 1-2.023 0 1.01 1.01 0 0 1 2.022 0m3.387-3.7c-.36.43-1 .486-1.43.128a1.016 1.016 0 0 1-.128-1.428 1.01 1.01 0 0 1 1.423-.128c.432.36.486.998.133 1.428" fill="#69655C"/><path d="M715.915 174.804a.534.534 0 0 1-.752.067.527.527 0 0 1-.066-.75l4.3-5.15a.53.53 0 0 1 .75-.067c.227.19.254.525.068.75l-4.3 5.152" fill="#69655C"/><path d="M727.043 180.486a.477.477 0 0 1-.66.116l-12.025-8.397a.474.474 0 0 1-.12-.655.477.477 0 0 1 .66-.116l12.025 8.397c.213.15.267.443.12.657" fill="#69655C"/><path d="M463.13 103.332l19.576 1.91v-3.82l-19.575 1.91m45.012 43.916c.31.107 15.42 11.404 15.42 11.404l-13.467 14.354-1.953-25.758" fill="#1D6E71"/><path d="M460.692 15.03s.172 5.08-1.5 8.502c-1.21 2.476-3.786 4.727-3.786 8.864 0 4.98 3.837 9.555 8.95 9.555 5.327 0 10.214-4.076 10.214-12.22 0-10.17-10.035-18.836-10.035-18.836s1.276 3.873 1.276 6.015c0 2.14-1.46 4.782-1.46 4.782s-.836-5.248-3.657-6.66" fill="#BA492D"/><path d="M464.65 23.66s1.248 2.643-2.26 5.23l.002.002a4.923 4.923 0 0 0 2.785 8.98 4.922 4.922 0 0 0 4.922-4.924c0-3.795-2.57-6.996-5.45-9.288" fill="#E15D3D"/><path d="M464.924 29.264s.6 1.27-1.084 2.51v.002a2.365 2.365 0 0 0 1.338 4.312 2.363 2.363 0 0 0 2.363-2.364c0-1.823-1.232-3.36-2.615-4.46" fill="#FFF"/><path d="M474.78 140.808a5.097 5.097 0 0 1-4.274-2.313c-1.088-1.665-10.62-16.852-10.62-37.164l1.05-32.162c0-2.82 1.233-3.842 4.05-3.842 2.818 0 4.15 1.772 4.15 4.59l.952 31.416c0 14.098 5.63 26.485 8.958 31.58a5.106 5.106 0 0 1-4.266 7.898m50.51 49.388l-19.043-9.315 15.586-31.905 19.042 9.315-15.586 31.905" fill="#2EAEBD"/><path d="M473.594 120.442l15.19-12.5-1.35-1.35-1.348-1.35-12.492 15.2" fill="#1D6E71"/><path d="M502.627 124.16c3.516.766 5.2 2.425 5.2 2.425s3.036 21.31 4.415 36.113c1.38 14.803 8.65 92.518 8.65 92.518h-55.667s2.933-46.578 3.698-55.383c.766-8.805 3.57-42.877 3.57-42.877s-10.856-25.778-12.004-29.606c6.247-5.104 15.684-11.868 15.684-11.868l9.728 8.678s1.613-1.276 7.165-1.276c0 0 6.043.51 9.56 1.276z" fill="#1D6E71"/><path d="M516.11 200.89l-.252.01c-2.613 3.456-5.47 6.863-8.477 10.183l1.8 44.133h12.01l-5.08-54.325" fill="#2EAEBD"/><path d="M465.265 248.268c-.27 4.227-.44 6.948-.44 6.948h19.49v-22.03a347.26 347.26 0 0 1-19.05 15.082" fill="#1E858C"/><g transform="translate(465.135 191.706)"><mask id="b" fill="#fff"><use xlink:href="#a"/></mask><path d="M.13.45h50.846v56.112H.13V.45z" fill="#1B6264" mask="url(#b)"/></g><path d="M516.73 207.496l-.287-3.047.286 3.045" fill="#66A3C6"/><path d="M507.737 219.813l-.355-8.716c2.938-3.247 5.737-6.577 8.3-9.95.01-.01.017-.02.024-.03l.045-.06c.016-.018.03-.036.044-.055l.03-.04c.016-.02.03-.04.047-.06l.24-.01.334 3.557.286 3.045c-2.41 4.178-5.51 8.32-8.993 12.317" fill="#2C9AA8"/><path d="M464.825 255.216l.4-6.32c.014-.206.028-.415.04-.63a346.086 346.086 0 0 0 19.05-15.07v8.26c-10.69 8.35-19.49 13.76-19.49 13.76" fill="#1D787D"/><path d="M465.265 248.268c11.777-8.66 35.61-27.418 50.82-47.652l-3.543-37.918c-1.38-14.802-4.714-36.113-4.714-36.113s-1.685-1.66-5.2-2.425c-3.517-.766-9.56-1.276-9.56-1.276-5.553 0-7.165 1.276-7.165 1.276l-9.728-8.678s-9.437 6.764-15.686 11.868c1.146 3.828 11.603 29.606 11.603 29.606s-2.805 34.072-3.57 42.877c-.582 6.684-2.41 35.114-3.26 48.435" fill="#2EAEBD"/><path d="M467.016 223.132l.55-10.11c8.312-6.504 19.534-15.778 30.022-26.05l-.05 10.064c-10.924 9.98-30.522 26.096-30.522 26.096" fill="#2C9AA8"/><path d="M467.167 213.02c12.752-9.976 32.755-26.48 46.05-43.102-.287-3.058-.52-5.554-.675-7.22-1.38-14.802-4.714-36.113-4.714-36.113s-1.685-1.66-5.2-2.425c-3.517-.766-9.56-1.276-9.56-1.276-5.553 0-7.165 1.276-7.165 1.276l-9.728-8.678s-9.437 6.764-15.686 11.868c1.146 3.828 11.603 29.606 11.603 29.606s-3.205 34.072-3.97 42.877c-.2 2.306-.15 7.215-.557 13.188" fill="#72C4C2"/><path d="M508.19 128.944l-.443.254c-3.143 4.575-6.304 9.036-9.738 13.313l.006 78.43c6.693-6.46 12.633-13.093 18.068-20.323L512.54 162.7c-1.1-11.834-3.45-27.813-4.35-33.755z" fill="#9FD6D7"/><path d="M469.926 183.158l.566-6.816c-.187 2.26-.38 4.564-.566 6.816m1.042-12.56l.098-1.187-.098 1.19" fill="#66A3C6"/><path d="M507.83 126.59h-.002m0-.005" fill="#1B6264"/><path d="M469.926 183.158c.187-2.252.38-4.555.566-6.816l.043-.52c.15-1.79.294-3.545.433-5.224l.098-1.187.155-1.874c7.964-9.79 24.066-29.293 24.066-29.293l8.46-12.154 2.755-.454c.89.52 1.33.95 1.33.95v.004c.01.07.144.922.36 2.354l-.442.254c-3.143 4.575-6.504 9.036-9.938 13.313l-.042 8.355c-1.812 2.62-3.487 4.972-4.7 6.524-5.15 6.59-23.107 25.73-23.142 25.77" fill="#67B0AF"/><path d="M497.768 150.864l.04-8.353c3.435-4.275 6.796-8.736 9.94-13.31l.442-.255c.195 1.29.458 3.054.763 5.143 0 0-6.12 9.446-11.185 16.777" fill="#88CCC9"/><path d="M508.142 128.63c-.198-1.302-.314-2.045-.314-2.045s-1.685-1.66-5.2-2.425c-3.517-.766-9.56-1.276-9.56-1.276-5.553 0-7.165 1.276-7.165 1.276l-9.728-8.678s-9.437 6.764-15.686 11.868c1.146 3.828 11.603 29.606 11.603 29.606l-1.237 14.983c10.246-9.96 25.398-25.876 37.285-43.31" fill="#9FD6D7"/><path d="M493.067 132.052a6.52 6.52 0 0 0 6.518-6.522v-1.902c-3.164-.46-6.517-.744-6.517-.744-3.703 0-5.63.562-6.518.94v1.706a6.52 6.52 0 0 0 6.517 6.522" fill="#72C4C2"/><path d="M488.033 115.563v8.073c0 2.45 2.585 4.437 5.035 4.437v-16.948c-2.45 0-5.035 1.988-5.035 4.438z" fill="#2EAEBD"/><path d="M498.003 123.636v-8.073c0-2.45-2.486-4.438-4.935-4.438v16.948c2.45 0 4.935-1.987 4.935-4.437z" fill="#1E858C"/><path d="M512.542 120.442l-15.19-12.5 1.348-1.35 1.35-1.35 12.492 15.2" fill="#1D6E71"/><path d="M502.02 110.64c0 4.95-4.008 8.96-8.952 8.96s-8.953-4.01-8.953-8.96v-7.11c0-4.946 4.01-8.957 8.953-8.957 4.944 0 8.952 4.01 8.952 8.958v7.11" fill="#72C4C2"/><path d="M484.115 103.53v7.11c0 4.95 4.01 8.96 8.953 8.96V94.573c-4.944 0-8.953 4.01-8.953 8.958" fill="#9FD6D7"/><path d="M493.068 73.875v-.002.002l-1.91 19.587h3.818l-1.908-19.587m-22.356 8.488l12.493 15.2 1.35-1.35 1.348-1.35-15.19-12.5" fill="#1D6E71"/><path d="M493.068 100.91s-.455 6.715-8.953 9.73c-.2-4.836-.607-6.636-.607-6.636s4.527-6.597 9.56-3.094" fill="#2EAEBD"/><path d="M493.068 92.204c-7.443 0-11.148 4.325-11.148 9.597 0 7.5 2.195 8.84 2.195 8.84 0-6.59 3.37-9.73 8.953-9.73v-8.705" fill="#2EAEBD"/><path d="M482.217 106.036c.598 3.795 1.898 4.605 1.898 4.605 0-6.59 3.37-9.73 8.953-9.73v-5.854c-6.636 0-10.67 3.563-10.85 10.98" fill="#1E858C"/><path d="M515.423 82.363l-12.492 15.2-2.697-2.7 15.19-12.5m7.58 20.97l-19.574 1.91v-3.82l19.573 1.91" fill="#1D6E71"/><path d="M493.068 100.91s.454 6.715 8.952 9.73c.2-4.836.607-6.636.607-6.636s-4.527-6.597-9.56-3.094" fill="#1E858C"/><path d="M493.068 92.204c7.442 0 11.148 4.325 11.148 9.597 0 7.5-2.196 8.84-2.196 8.84 0-6.59-3.368-9.73-8.952-9.73v-8.705" fill="#1E858C"/><path d="M503.92 106.036c-.6 3.795-1.9 4.605-1.9 4.605 0-6.59-3.368-9.73-8.952-9.73v-5.854c6.636 0 10.67 3.563 10.85 10.98" fill="#1D6E71"/><path d="M456.918 255.016h72.18l-.1 12.08h-71.98l-.1-12.08z" fill="#F9F8E8"/><path d="M456.918 300.053h72.18v36.03h-72.18v-36.03z" fill="#DAD7C3"/><path d="M457.018 335.982h71.98v21.027h-71.98v-21.03zm2.086-61.898h67.908v9.89h-67.908v-9.89zm-2.086 25.97h71.98v2.883h-71.98v-2.884z" fill="#B0AFA3"/><path d="M449.012 283.974h87.992v16.08h-87.992v-16.08z" fill="#F9F8E8"/><path d="M453.958 266.995h78.1v7.09h-78.1v-7.09z" fill="#DAD7C3"/><path d="M451.94 356.91h82.036v6.19H451.94v-6.19z" fill="#F9F8E8"/><path d="M454.058 374.07h78v15.95h-78v-15.95z" fill="#B0AFA3"/><path d="M451.94 363h82.136v11.07H451.94V363z" fill="#DAD7C3"/><path d="M439.992 390.02h106.032v16.028H439.992V390.02z" fill="#F9F8E8"/><path d="M534.097 179.38c-.73 1.44-2.583 1.97-4.14 1.18-1.554-.788-2.224-2.595-1.494-4.037l2.965-5.856c.73-1.44 2.583-1.97 4.138-1.18 1.556.788 2.226 2.595 1.496 4.037l-2.965 5.856" fill="#9FD6D7"/><path d="M462.814 47.875v24.823c0 1.2.973 2.175 2.174 2.175V45.7c-1.2 0-2.174.973-2.174 2.175" fill="#1E858C"/><path d="M467.16 72.698V47.875a2.173 2.173 0 0 0-2.172-2.175v29.173c1.2 0 2.173-.974 2.173-2.175" fill="#1D6E71"/><path d="M476.398 39.102h-22.82a2.847 2.847 0 0 0-2.847 2.85h28.516a2.847 2.847 0 0 0-2.847-2.85" fill="#2EAEBD"/><path d="M453.577 44.8h22.82a2.848 2.848 0 0 0 2.848-2.85H450.73a2.85 2.85 0 0 0 2.847 2.85" fill="#1E858C"/><path d="M470.055 64.58a3.63 3.63 0 0 1-3.63 3.632h-2.874a3.63 3.63 0 0 1-3.63-3.632v-8.098a3.63 3.63 0 0 1 3.63-3.633h2.876a3.63 3.63 0 0 1 3.63 3.63v8.1" fill="#72C4C2"/><path d="M459.52 44.8h5.468v8.05h-2.174l-3.295-8.05" fill="#1E858C"/><path d="M470.456 44.8h-5.468v8.05h2.173l3.297-8.05" fill="#1D6E71"/><path d="M465.617 140.808l20.286-16.648-13.81 32.796-6.476-16.148" fill="#2EAEBD"/><path d="M477.665 306.14h6.198v18.036h-6.198V306.14zm12.245 0h6.197v18.036h-6.198V306.14zm12.243 0h6.198v18.036h-6.196V306.14z" fill="#B0AFA3"/></g><g><path d="M242.107 194.915l-.73-.046.73.044m-5.092-.315l-5.033-.31 3.094.19 1.94.12" fill="#BEBFB1"/><path d="M507 273.1h32.9V293H507v-19.9z" fill="#BAB7A5"/><path d="M503.932 296.96h36.09v80.99h-36.09v-80.99z" fill="#F9F8E8"/><path d="M539.922 277.852h86.12V378.05h-86.12V277.852z" fill="#F9F8E8"/><path d="M546.987 287.018h71.99v90.932h-71.99v-90.932z" fill="#DAD7C3"/><path d="M551.993 292h61.978v85.95h-61.976V292z" fill="#F9F8E8"/><path d="M556.002 296.06h53.86v81.89h-53.86v-81.89z" fill="#DAD7C3"/><path d="M500.933 278.052h3.1v99.898h-3.1v-99.898z" fill="#F9F8E8"/><path d="M539.522 273.328h86.52v4.724h-86.52v-4.724zm-35.39 18.772h35.89v4.86h-35.89v-4.86z" fill="#BBB7A5"/><path d="M508.087 304.044h26.98v35.865h-26.98v-35.867z" fill="#DAD7C3"/><path d="M521.727 308.43s-10.11 3.29-10.11 9.874v19.088h20.22v-19.088c0-6.583-10.11-9.873-10.11-9.873" fill="#BBB7A5"/><path d="M508.387 342.084h26.68v35.866h-26.68v-35.866z" fill="#DAD7C3"/><path d="M512.016 356.565v19.488h19.822v-19.488c0-6.582-10.11-9.873-10.11-9.873s-9.712 3.29-9.712 9.873z" fill="#BBB7A5"/><path d="M522.84 250.598s-18.23 7.03-15.68 22.73h31.862c2.55-15.7-15.68-22.73-15.68-22.73" fill="#F9F8E8"/><path d="M501.033 377.95V292.6l-26.02 4.76v80.59h26.02z" fill="#DAD7C3"/><path d="M560.074 331.086v46.864h45.817v-46.864c0-14.316-23.107-21.71-23.107-21.71s-22.708 7.394-22.708 21.71z" fill="#BBB7A5"/><path d="M537.263 273.328h2.26v6.346h-2.26v-6.346z" fill="#8B8A80"/><path d="M537.063 296.96h2.86v81.09h-2.86v-81.09zm2.46 80.99v-99.898 99.898m-35.59-80.89h2.06v80.99h-2.06v-80.99z" fill="#BEBFB1"/><path d="M506.96 272.828V292.1h3.74v-10.38c0-3.75 3.696-5.627 3.696-5.627s3.696 1.876 3.696 5.627v10.38h1.553v-10.38c0-3.75 3.696-5.627 3.696-5.627s3.698 1.876 3.698 5.627v10.38h1.553v-10.38c0-3.75 3.698-5.627 3.698-5.627s3.695 1.876 3.695 5.627v10.38h4.04v-19.272l-33.062.2" fill="#DAD7C3"/><path d="M497.417 340.04l-19.055 1.873.492-33.78 18.563-3.63v35.537" fill="#BBB7A5"/><path d="M488.104 312.092s-7.1 4.206-7.178 10.158l-.23 17.26 14.418-1.437s.022-11.75.032-17.935c.01-6.184-7.042-8.046-7.042-8.046" fill="#918E83"/><path d="M497.417 377.95h-19.58l.492-33.78 19.086-1.756v35.536" fill="#BBB7A5"/><path d="M480.465 358.66c-.08 5.9-.23 17.313-.23 17.313l7.408-.04 7.408-.04.034-17.984c.01-6.134-7.242-8.65-7.242-8.65s-7.296 3.5-7.375 9.4z" fill="#918E83"/><path d="M500.533 297.362l-25.32 4.76v-4.76l25.32-4.762v4.762" fill="#BAB7A5"/><path d="M504.945 278.285c.032-2.288-2.713-4.04-2.713-4.04s-2.745 1.752-2.712 4.04h-.002c0 .474.078 2.92 2.714 2.92s2.714-2.446 2.714-2.92m121.102 18.675h35.988v81.09h-35.988v-81.09z" fill="#F9F8E8"/><path d="M661.936 278.052h3.1v99.998h-3.1v-99.998z" fill="#F9F8E8"/><path d="M626.048 293h35.988v4.06h-35.988V293z" fill="#BBB7A5"/><path d="M631.003 304.023h25.98v35.966h-25.98V304.02z" fill="#DAD7C3"/><path d="M653.955 318.304v18.688h-19.823v-18.688c0-6.583 9.71-9.873 9.71-9.873s10.113 3.29 10.113 9.875z" fill="#BBB7A5"/><path d="M582.782 361.746s5.336 1.736 5.336 5.21v10.994h-10.672v-10.994c0-3.474 5.336-5.21 5.336-5.21" fill="#918E83"/><path d="M631.003 342.084h26.08v35.866h-26.08v-35.866z" fill="#DAD7C3"/><path d="M643.843 346.692s10.112 3.29 10.112 9.873v19.088h-20.223v-19.088c0-6.582 10.11-9.873 10.11-9.873" fill="#BBB7A5"/><path d="M641.83 250.598s18.727 7.03 16.178 22.73h-31.96c-2.55-15.7 16.18-22.73 16.18-22.73" fill="#F9F8E8"/><path d="M665.037 378.15V292.6l25.017 4.76v80.69l-25.017.1z" fill="#DAD7C3"/><path d="M626.048 273.328h2.26V292.6h-2.26v-19.272z" fill="#5C90AC"/><path d="M626.048 296.96h1.96v81.19h-1.96v-81.19zm33.932.1h1.956v80.99h-1.957v-80.99zm1.656 80.89V292.6v85.35" fill="#BEBFB1"/><path d="M626 273.1h32.9V293H626v-19.9z" fill="#BAB7A5"/><path d="M659.008 293.1h-4.14v-11.38c0-3.75-3.695-5.627-3.695-5.627s-3.694 1.876-3.694 5.627v11.38h-1.56v-11.38c0-3.75-3.692-5.627-3.692-5.627s-3.697 1.876-3.697 5.627v11.38h-1.552v-11.38c0-3.75-3.696-5.627-3.696-5.627s-3.696 1.876-3.696 5.627v11.38h-3.54v-20.072h32.96V293.1z" fill="#DAD7C3"/><path d="M668.15 340.04l19.056 1.873-.492-33.78-18.563-3.63v35.537" fill="#BBB7A5"/><path d="M677.47 312.092s7.094 4.206 7.174 10.158l.233 17.26-7.215-.72-7.208-.717s-.02-11.75-.033-17.935c-.005-6.184 7.05-8.046 7.05-8.046" fill="#918E83"/><path d="M668.15 377.95h19.582l-.492-33.78-19.09-1.756v35.536" fill="#BBB7A5"/><path d="M677.73 349.26s7.293 3.5 7.373 9.4l.233 17.113-7.408-.04-7.407-.04-.03-17.784c-.015-6.134 7.24-8.65 7.24-8.65m-12.693-51.898l25.317 4.76v-4.76l-25.317-4.762v4.762" fill="#918E83"/><path d="M660.624 278.285c-.033-2.288 2.715-4.04 2.715-4.04s2.74 1.752 2.707 4.04h.007c0 .474-.08 2.92-2.716 2.92s-2.716-2.446-2.716-2.92" fill="#F9F8E8"/><path d="M539.522 262.05h86.52v11.978h-86.52V262.05z" fill="#DAD7C3"/><path d="M540.022 262.05h86.02v3.925h-86.02v-3.924z" fill="#BBB7A5"/><path d="M583.182 173.33c-1.15 1.227-7.838 6.883-14.487 12.653h14.487c0-3.888-.1-8.59-.1-12.653" fill="#DAD7C3"/><path d="M582.982 185.983h-14.287c-6.75 5.856-13.873 11.833-16.38 13.83-5.97 4.577-10.723 10.19-14.075 15.912a33.682 33.682 0 0 0-2.907 5.787c-1.37 3.257-2.262 6.444-2.64 9.382-1.722 9.604-.004 17.292 2.155 22.58.766 2.014 1.785 4.41 3.13 6.393.944 1.433 1.617 2.184 1.617 2.184h43.487l-.1-72.67v-3.396z" fill="#F9F8E8"/><path d="M630.23 221.512a33.535 33.535 0 0 0-2.906-5.787c-3.352-5.72-8.104-11.335-14.072-15.903-2.51-2.006-9.633-7.983-16.382-13.84h-13.888v76.07h42.988s.672-.75 1.616-2.184c1.345-1.984 2.364-4.38 3.13-6.394 2.16-5.287 3.877-12.975 2.157-22.58-.38-2.937-1.273-6.124-2.642-9.38z" fill="#DAD7C3"/><path d="M596.87 186.083c-6.65-5.77-12.736-11.526-13.888-12.753v12.753l13.888-.1m-200.874 32.94a.462.462 0 0 1-.924 0v-9.47c0-.254.207-.462.462-.462s.462.21.462.465v9.47" fill="#BBB7A5"/><path d="M395.533 213.685a1.826 1.826 0 0 0-1.843 1.81c-.01 1.01.8 1.837 1.81 1.846h.033v-3.654" fill="#F9F8E8"/><path d="M395.534 217.34c1.01.01 1.835-.8 1.844-1.81.01-1.01-.8-1.835-1.81-1.845l-.034.002v3.654" fill="#DAD7C3"/><path d="M395.533 210.566a1.29 1.29 0 0 0-.022 2.583l.024-.004v-2.58" fill="#F9F8E8"/><path d="M395.534 213.15a1.292 1.292 0 0 0 .024-2.584h-.024v2.583" fill="#DAD7C3"/><path d="M395.334 377.95l-.1-133.24h-5.68l-5.977 133.24h11.757z" fill="#F9F8E8"/><path d="M395.134 378.15V244.71h6.378l5.98 133.24-12.358.2z" fill="#DAD7C3"/><path d="M395.534 218.168s-7.114 3.09-7.114 9.94h7.114v-9.94" fill="#F9F8E8"/><path d="M395.534 218.168s7.114 3.09 7.114 9.94h-7.114v-9.94" fill="#DAD7C3"/><path d="M388.51 230.05v13.013h1.33v-6.83c0-2.4 2.182-3.6 2.182-3.6s2.183 1.2 2.183 3.6v6.83h1.33V230.05h-7.026" fill="#F9F8E8"/><path d="M395.534 230.05v13.013h1.33v-6.83c0-2.4 2.182-3.6 2.182-3.6s2.184 1.2 2.184 3.6v6.83h1.328V230.05h-7.024" fill="#DAD7C3"/><path d="M408.388 293.914c0 .91-.736 1.646-1.645 1.646h-22.42a1.645 1.645 0 0 1 0-3.29h22.42c.91 0 1.645.735 1.645 1.643m-1.832-49.203c0 .907-.736 1.644-1.644 1.644h-18.757a1.645 1.645 0 0 1 0-3.292h18.758c.908 0 1.644.737 1.644 1.646m3.463 92.002c0 .91-.735 1.647-1.643 1.647H382.69a1.645 1.645 0 0 1 0-3.29h25.688c.908 0 1.644.737 1.644 1.645m-3.578-107.632a.97.97 0 0 1-.97.97h-19.88a.97.97 0 0 1 0-1.943h19.88a.97.97 0 0 1 .97.973" fill="#BBB7A5"/><path d="M395.533 206.225s-.922 1.346-.922 2.243c0 .898.44 1.383.925 1.383v-3.624" fill="#F9F8E8"/><path d="M395.536 206.225s.922 1.346.922 2.243c0 .898-.44 1.383-.924 1.383l.002-3.624" fill="#DAD7C3"/><path d="M769.576 218.924a.462.462 0 0 0 .925 0v-9.47a.462.462 0 0 0-.924 0v9.47" fill="#BBB7A5"/><path d="M770.035 213.685a1.824 1.824 0 0 1 1.844 1.81 1.826 1.826 0 0 1-1.813 1.846h-.033v-3.654" fill="#F9F8E8"/><path d="M770.035 217.34c-1.005.01-1.83-.8-1.844-1.81a1.83 1.83 0 0 1 1.813-1.845l.033.002v3.654" fill="#DAD7C3"/><path d="M770.035 210.566a1.293 1.293 0 0 1 .026 2.583l-.026-.004v-2.58" fill="#F9F8E8"/><path d="M770.035 213.15a1.29 1.29 0 0 1-1.298-1.28 1.29 1.29 0 0 1 1.278-1.304h.02v2.583" fill="#DAD7C3"/><path d="M781.995 377.95h-11.96V244.71h5.977l5.983 133.24" fill="#F9F8E8"/><path d="M758.082 377.95h11.953V244.71h-5.977l-5.976 133.24" fill="#DAD7C3"/><path d="M770.035 218.168s7.115 3.09 7.115 9.94h-7.115v-9.94" fill="#F9F8E8"/><path d="M770.035 218.168s-7.115 3.09-7.115 9.94h7.115v-9.94" fill="#DAD7C3"/><path d="M777.063 230.05v13.013h-1.33v-6.83c0-2.4-2.184-3.6-2.184-3.6s-2.185 1.2-2.185 3.6v6.83h-1.33V230.05h7.027" fill="#F9F8E8"/><path d="M770.035 230.05v13.013h-1.325v-6.83c0-2.4-2.19-3.6-2.19-3.6s-2.182 1.2-2.182 3.6v6.83h-1.325V230.05h7.022" fill="#DAD7C3"/><path d="M757.183 293.914c0 .91.74 1.646 1.644 1.646h22.416c.912 0 1.644-.737 1.644-1.646 0-.908-.732-1.645-1.644-1.645h-22.416c-.905 0-1.644.735-1.644 1.643m1.83-49.203c0 .907.74 1.644 1.644 1.644h18.756c.91 0 1.644-.737 1.644-1.645 0-.91-.733-1.648-1.644-1.648h-18.756c-.905 0-1.644.737-1.644 1.646m-3.46 92.002c0 .91.732 1.647 1.643 1.647h25.684c.905 0 1.644-.737 1.644-1.646 0-.906-.74-1.643-1.644-1.643h-25.684c-.91 0-1.644.737-1.644 1.645m3.574-107.632c0 .536.433.97.972.97h19.88a.973.973 0 0 0 .972-.97.975.975 0 0 0-.972-.973h-19.88a.97.97 0 0 0-.972.973" fill="#BBB7A5"/><path d="M770.035 206.225s.925 1.346.925 2.243c0 .898-.44 1.383-.925 1.383v-3.624" fill="#F9F8E8"/><path d="M770.035 206.225s-.925 1.346-.925 2.243c0 .898.44 1.383.925 1.383v-3.624" fill="#DAD7C3"/><path d="M582.386 173.787a.396.396 0 0 0 .793 0v-8.136a.398.398 0 0 0-.795.002v8.137" fill="#BBB7A5"/><path d="M582.782 160.55a1.955 1.955 0 1 0-.036 3.91l.036-.004v-3.908" fill="#F9F8E8"/><path d="M582.784 164.46a1.956 1.956 0 0 0 .036-3.912l-.036.002v3.91" fill="#DAD7C3"/><path d="M582.782 151.1a1.2 1.2 0 0 0-.022 2.398h.022V151.1" fill="#F9F8E8"/><path d="M582.784 153.497a1.197 1.197 0 1 0 .022-2.396l-.022.003v2.395" fill="#DAD7C3"/><path d="M582.782 162.504l-.728-.554.728-16.8v17.354" fill="#F9F8E8"/><path d="M582.784 162.504l.728-.554-.728-16.8v17.354" fill="#DAD7C3"/><path d="M582.782 170.74a1.953 1.953 0 0 0-1.972 1.937 1.954 1.954 0 0 0 1.936 1.973h.036v-3.91" fill="#F9F8E8"/><path d="M582.784 174.65a1.955 1.955 0 0 0 .036-3.91h-.036v3.91" fill="#DAD7C3"/><path d="M586.006 151.95a3.267 3.267 0 0 1-3.224 3.775 3.267 3.267 0 0 1-3.266-3.268c0-.173.017-.34.043-.507a3.626 3.626 0 1 0 6.848 1.655c0-.596-.148-1.158-.403-1.655m-3.227 12.118s-2.394 2.327-2.394 3.88c0 1.55 1.14 2.39 2.398 2.39 0-2.133-.004-6.27-.004-6.27" fill="#F9F8E8"/><path d="M582.786 164.068s2.394 2.327 2.394 3.88c0 1.55-1.14 2.39-2.398 2.39 0-2.133.004-6.27.004-6.27M559.674 340.01h46.217v2.104h-46.215v-2.105z" fill="#DAD7C3"/><path d="M588.117 340.01v-8.87c0-2.95-2.39-5.34-5.335-5.34a5.337 5.337 0 0 0-5.335 5.34v8.87l10.67-.1" fill="#918E83"/><path d="M370.937 377.95h423.697v13.898H370.937V377.95z" fill="#BBB7A5"/><path d="M370.937 377.95h423.11v3.062h-423.11v-3.062z"/><path d="M523.04 250.598v22.43h16.482c2.55-15.7-16.48-22.43-16.48-22.43zm118.99 0v22.43h16.378c2.55-15.7-16.38-22.43-16.38-22.43z" fill="#BBB7A5"/></g><g><path d="M244.204 378.394a6.563 6.563 0 0 0-6.56 6.566v16.888h14.323v-23.454h-7.763" fill="#44403A"/><path d="M249.863 376.555a4.138 4.138 0 0 0-4.136 4.14v21.153h13.787v-25.293h-9.65m2.526-48.043h-6.268a3.96 3.96 0 0 0-3.96 3.963l-1.405 36.327a3.962 3.962 0 0 0 3.96 3.964h7.674v-44.254" fill="#59534A"/><path d="M259.514 322.98h-8.257a5.218 5.218 0 0 0-5.216 5.22l-1.85 47.85a5.218 5.218 0 0 0 5.218 5.218h10.107V322.98" fill="#6B6357"/><path d="M251.967 360.08s4.02-6.75 4.02-10.945c0-4.196 1.763.92 1.763.92l-.42 9.082-5.363.943" fill="#7A7267"/><path d="M259.514 358.907v-23.264a3.528 3.528 0 0 0-3.528 3.53v19.734h3.528" fill="#7A7267"/><path d="M259.514 334.087c-5.473 0-10.166 2.503-12.158 6.064h12.158v-6.062m0 31.17h-11.598c0 .955.774 1.73 1.73 1.73h9.868v-1.73m0-8.942c-3.398 0-6.31 1.553-7.547 3.764h7.547v-3.764" fill="#44403A"/><path d="M259.514 363.527h-9.868a1.73 1.73 0 0 0-1.73 1.73h11.598v-1.73" fill="#847C73"/><path d="M274.824 378.394c3.624 0 6.56 2.94 6.56 6.566v16.888h-14.322v-23.454h7.762" fill="#44403A"/><path d="M269.165 376.555a4.137 4.137 0 0 1 4.136 4.14v21.153h-13.785v-25.293h9.65" fill="#59534A"/><path d="M266.638 328.512h6.268a3.96 3.96 0 0 1 3.96 3.963l1.405 36.327a3.96 3.96 0 0 1-3.96 3.964h-7.67v-44.254" fill="#44403A"/><path d="M259.514 322.98h8.258a5.218 5.218 0 0 1 5.216 5.22l1.85 47.85a5.218 5.218 0 0 1-5.217 5.218h-10.105V322.98" fill="#59534A"/><path d="M267.062 360.08s-4.02-6.75-4.02-10.945c0-4.196-1.763.92-1.763.92l.416 9.082 5.365.943" fill="#6E655B"/><path d="M259.514 358.907v-23.264a3.53 3.53 0 0 1 3.53 3.53v19.734h-3.53" fill="#6E655B"/><path d="M259.514 334.087c5.473 0 10.167 2.503 12.157 6.064h-12.155v-6.062m0 31.17h11.597a1.73 1.73 0 0 1-1.73 1.73h-9.868v-1.73m0-8.942c3.398 0 6.31 1.553 7.548 3.764h-7.548v-3.764" fill="#32302C"/><path d="M259.514 363.527h9.868c.956 0 1.73.775 1.73 1.73h-11.598v-1.73" fill="#6E655B"/><path d="M277.378 378.91" fill="#821E29"/><path d="M275.19 378.404" fill="#631D24"/><path d="M240.762 368.972v-.004.004m-.002-.023v-.01.008m0-.025v-.01.01m0-.024v-.01.01m-.002-.025v-.012.012m0-.024v-.014.015m0-.023v-.026.027m0-.026l.31-8-.31 8m.942-24.39l.46-11.936a3.928 3.928 0 0 1 .002 0l-.462 11.936" fill="#5C90AC"/><path d="M241.067 360.803l.303-7.852-.303 7.854" fill="#221E19"/><path d="M241.37 352.95l.112-2.9-.112 2.9" fill="#407354"/><path d="M241.482 350.05l.218-5.64-.218 5.64" fill="#44A57D"/><path d="M242.275 331.53c0-.005.002-.01.003-.014l-.003.013m.007-.03v-.003m3.746-2.985l.012-.295-.01.295h-.002" fill="#5C90AC"/><path d="M245.727 401.848h-6.023v-21.665a6.534 6.534 0 0 1 4.5-1.79h.058l-.07 1.848c0 1.447.586 2.755 1.535 3.7v17.91" fill="#35332E"/><path d="M244.927 401.848V383.94c.943.94 3.044 1.52 4.48 1.52h10.507v16.388h-14.987z" fill="#46413A"/><path d="M245.727 383.94a5.203 5.203 0 0 1-1.536-3.7l.073-1.846h.484c.272.54.636 1.028 1.07 1.44-.058.278-.09.565-.09.86v3.246" fill="#2E2D29"/><path d="M259.714 385.46h-10.307a5.196 5.196 0 0 1-3.68-1.52v-3.246c0-.295.03-.582.09-.86.934.89 2.2 1.434 3.59 1.434h10.307l-.2 4.193" fill="#3F3B34"/><path d="M240.762 368.994l-.004-.13c0-.045 1.404-36.39 1.404-36.39 0-.323.038-.638.112-.94a3.972 3.972 0 0 1 3.754-3.013l-1.71 44.207c-1.933-.197-3.462-1.768-3.556-3.732z" fill="#46413A"/><path d="M249.407 381.168c-1.39 0-2.656-.445-3.59-1.333-.435-.413-.8-.9-1.07-1.44-.334-.71-.555-1.5-.555-2.346l.128-3.325 1.72-44.508c0-2.9 2.336-5.238 5.217-5.238h8.757v11.106c-5.473 0-10.666 2.503-12.658 6.064h8.63v8.985c0 3.814-3.32 9.738-3.925 10.784-.03.05-.06.1-.086.15-.004.005 8.04.01 8.04.01v3.446h-10.367a1.73 1.73 0 0 0 0 3.46h10.368v14.18h-10.607z" fill="#544E44"/><path d="M251.967 360.08l.006-.01-.006.01m.094-.16c.606-1.047 3.927-6.97 3.927-10.785v7.78c-1.734.622-3.13 1.69-3.925 3.004" fill="#5F5951"/><path d="M255.986 340.15h3.428v16.166c-1.263 0-2.36.215-3.428.598V340.15z" fill="#5F5951"/><path d="M260.014 340.15h-12.658c1.992-3.56 6.885-6.063 12.358-6.063l.2 6.064m-.1 26.838h-10.168a1.73 1.73 0 0 1-1.73-1.73h11.898l-.3 1.73m.2-6.908h-7.747c.034-.06.064-.11.094-.16.797-1.316 2.193-2.383 3.927-3.006 1.068-.383 2.465-.598 3.728-.598l-.2 3.764" fill="#35332E"/><path d="M259.514 365.057h-11.598c0-.955.774-2.03 1.73-2.03h9.868v2.23" fill="#68615A"/><path d="M281.885 401.848H273.3V383.94a5.204 5.204 0 0 0 1.537-3.7l-.07-1.846h.057a6.542 6.542 0 0 1 2.553.517c2.353.997 4.506 3.33 4.506 6.05l-.1 16.89" fill="#35332E"/><path d="M260.114 401.848v-25.293 8.906h9.507c1.438 0 3.34-.58 4.28-1.52v17.91h-13.785z" fill="#46413A"/><path d="M273.3 383.94v-3.246c0-.295-.03-.582-.088-.86.435-.412.798-.9 1.07-1.44h.484l.07 1.847a5.206 5.206 0 0 1-1.535 3.7" fill="#2E2D29"/><path d="M259.314 385.46v-8.905 4.713h10.307a5.2 5.2 0 0 0 3.593-1.433c.06.277.09.564.09.86v3.245a5.2 5.2 0 0 1-3.68 1.52h-10.308z" fill="#3F3B34"/><path d="M274.753 373.877l-.044-1.13.042 1.13" fill="#821E29"/><path d="M274.834 376.237c.002-.062.003-.125.003-.188l-.084-2.174.084 2.172c0 .062 0 .125-.003.187" fill="#631D24"/><path d="M278.216 369.462v-.002.002m.003-.013c.032-.21.05-.428.05-.65l-.084-2.175.085 2.176c0 .22-.017.438-.052.648" fill="#821E29"/><path d="M278.187 366.626l-.112-2.9.112 2.9" fill="#631D24"/><path d="M277.995 361.654l-.336-8.703.334 8.705" fill="#221E19"/><path d="M277.66 352.95l-.114-2.9.113 2.9" fill="#407354"/><path d="M277.547 350.05l-.537-13.88.537 13.88m-.64-16.575h-.002" fill="#44A57D"/><path d="M278.075 363.725l-.08-2.07.08 2.07" fill="#54181F"/><path d="M277.01 336.17l-.105-2.695.105 2.694" fill="#407354"/><path d="M276.906 333.475l-.04-1 .04 1m-.16-1.97l-.003-.013c0 .005.002.01.003.014m-.007-.03" fill="#821E29"/><path d="M273 328.513l-.012-.295.012.295" fill="#631D24"/><path d="M271.466 324.514l-.006-.006.006.006m-.012-.01" fill="#44A57D"/><path d="M274.71 372.746L273 328.513v.008a3.964 3.964 0 0 1 3.74 2.956c0 .006.003.012.004.017 0 .005.002.01.003.014a4.04 4.04 0 0 1 .12.97l1.402 36.327c0 .22-.017.437-.05.647-.002.003-.002.006-.003.01v.002a3.96 3.96 0 0 1-3.508 3.264v.02" fill="#35332E"/><path d="M260.114 381.168V322.98h7.658c1.437 0 2.74.582 3.682 1.523a5.21 5.21 0 0 1 1.534 3.697l1.85 47.85a5.215 5.215 0 0 1-.58 2.344 4.687 4.687 0 0 1-1.046 1.44c-.935.89-2.2 1.334-3.59 1.334h-9.508zm-.6-15.91v1.73h9.868a1.73 1.73 0 0 0 0-3.46h-9.868v1.73m7.448-5.35c-.62-1.072-3.92-6.97-3.92-10.773v-8.984h8.63c-1.99-3.56-6.385-6.062-11.858-6.062v25.993h7.248l-.1-.17z" fill="#46413A"/><path d="M266.962 359.91c-.796-1.31-2.19-2.374-3.92-2.996v-7.78c0 3.803 3.3 9.702 3.92 10.775" fill="#564F47"/><path d="M260.014 358.907v-23.264 4.508h3.03v16.765c-1.02-.366-1.656-.578-2.856-.597h-.674v2.59" fill="#564F47"/><path d="M259.714 340.15v-6.063c5.473 0 9.967 2.503 11.957 6.064h-11.955zm9.668 26.838h-9.868v-1.73h11.598a1.73 1.73 0 0 1-1.73 1.73m-2.32-6.908h-7.548v-3.764c1.264 0 2.46.215 3.53.598 1.73.622 3.122 1.685 3.918 2.995l.1.17" fill="#262522"/><path d="M271.112 365.057h-11.198v-1.93h9.468c.956 0 1.73 1.175 1.73 2.13" fill="#564F47"/><path d="M121.047 381.163v20.685h17.245V373.12h-9.508c-4.438 0-7.737 3.6-7.737 8.043z" fill="#44403A"/><path d="M135.716 370.868a5.068 5.068 0 0 0-5.066 5.07v25.91h16.886v-30.98h-11.82m3.094-58.846h-7.677a4.852 4.852 0 0 0-4.85 4.854l-1.72 44.496c0 2.68 2.17 4.854 4.85 4.854h9.398v-54.204" fill="#59534A"/><path d="M147.536 305.246h-10.114a6.39 6.39 0 0 0-6.388 6.394l-2.266 58.608a6.39 6.39 0 0 0 6.39 6.393h12.378v-71.393" fill="#6B6357"/><path d="M138.292 350.688s4.923-8.266 4.923-13.406c0-5.14 2.16 1.127 2.16 1.127l-.512 11.122-6.57 1.155" fill="#7A7267"/><path d="M147.536 349.252v-28.495a4.32 4.32 0 0 0-4.32 4.324v24.173h4.32" fill="#7A7267"/><path d="M147.537 318.852c-6.704 0-12.453 3.065-14.89 7.426h14.89v-7.426m0 38.178H133.33c0 1.17.95 2.12 2.12 2.12h12.087v-2.12m0-10.952c-4.163 0-7.73 1.902-9.245 4.61h9.245v-4.61" fill="#44403A"/><path d="M147.537 354.91H135.45c-1.17 0-2.12.95-2.12 2.12h14.207v-2.12" fill="#847C73"/><path d="M166.288 373.12a8.04 8.04 0 0 1 8.037 8.043v20.685H156.78V373.12h9.508" fill="#44403A"/><path d="M159.357 370.868a5.068 5.068 0 0 1 5.066 5.07v25.91h-16.886v-30.98h11.82" fill="#59534A"/><path d="M156.262 312.022h7.678c2.68 0 4.85 2.174 4.85 4.854l1.72 44.496c0 2.68-2.17 4.854-4.85 4.854h-9.398v-54.204" fill="#44403A"/><path d="M147.537 305.246h10.114a6.39 6.39 0 0 1 6.39 6.394l2.266 58.608a6.39 6.39 0 0 1-6.39 6.393h-12.378v-71.393" fill="#59534A"/><path d="M156.78 350.688s-4.922-8.266-4.922-13.406c0-5.14-2.16 1.127-2.16 1.127l.512 11.122 6.57 1.155" fill="#6E655B"/><path d="M147.537 349.252v-28.495a4.322 4.322 0 0 1 4.32 4.324v24.173h-4.32" fill="#6E655B"/><path d="M147.537 318.852c6.703 0 12.45 3.065 14.89 7.426h-14.89v-7.426m0 38.178h14.205a2.12 2.12 0 0 1-2.118 2.12h-12.087v-2.12m0-10.952c4.16 0 7.73 1.902 9.243 4.61h-9.243v-4.61" fill="#32302C"/><path d="M147.537 354.91h12.087c1.17 0 2.118.95 2.118 2.12h-14.205v-2.12" fill="#6E655B"/><path d="M147.537 361.448V355.9v5.548m0-29.022v-3.44 3.44m0-25.366v-1.814 1.814" fill="#C0BEAD"/><path d="M147.537 327.17v-20.11 20.11" fill="#827F75"/><path d="M147.537 355.9v-1.814 1.814m0-28.73v1.815-1.815z" fill="#D9DACA"/><path d="M147.537 354.086v-21.66 21.66m0 45.694v-38.33 38.333" fill="#827F75"/><path d="M123.937 374.748l.012-.01-.014.01m.02-.015a8 8 0 0 1 4.828-1.612h.663-.664c-1.812 0-3.484.6-4.827 1.614m1.482-36.047l.842-21.81-.843 21.81m.947-22.82l.004-.02c0 .005 0 .012-.003.02m.008-.036l.002-.01-.002.01m4.623-3.806l.015-.383-.014.384" fill="#66A3C6"/><path d="M121.147 401.848v-20.685c0-2.62.852-4.947 2.79-6.415a8.012 8.012 0 0 1 4.847-1.627h.664-.593l-.087 2.263c0 1.77.72 3.373 1.882 4.53v21.936h-9.503z" fill="#3C3934"/><path d="M130.15 401.848v-21.935c1.155 1.15 3.248 1.863 5.007 1.863h12.38v20.073H130.15z" fill="#504A42"/><path d="M147.537 381.776V370.87v10.908" fill="#747168"/><path d="M130.65 379.913a6.376 6.376 0 0 1-1.882-4.53l.087-2.262h.593a6.45 6.45 0 0 0 1.31 1.766 5.2 5.2 0 0 0-.108 1.052v3.976" fill="#35342F"/><path d="M135.157 381.776a6.364 6.364 0 0 1-4.507-1.863v-3.976a5 5 0 0 1 .11-1.052 6.36 6.36 0 0 0 4.397 1.756h12.78v5.137h-12.78z" fill="#47423B"/><path d="M128.925 366.178c-2.446-.25-4.363-2.292-4.363-4.806l1.72-44.496c0-.345.036-.682.105-1.007v-.004l.004-.022c.004-.005.005-.01.006-.014a4.852 4.852 0 0 1 4.622-3.797v-.01l-2.092 54.155" fill="#504A42"/><path d="M148.336 377.14h-13.18c-1.703 0-3.252-1.167-4.397-2.255a6.406 6.406 0 0 1-1.313-1.764c-.41-.865-.68-1.832-.68-2.87l.158-4.07 2.092-54.156.016-.383a6.37 6.37 0 0 1 1.87-4.52c1.157-1.157 2.755-2.073 4.518-2.073h10.615v13.806c-6.703 0-12.952 3.065-15.39 7.426h10.57v11.003c0 4.658-4.043 11.88-4.8 13.197a3.676 3.676 0 0 0-.124.208h10.045v4.222H135.45a2.12 2.12 0 0 0 0 4.24h12.887v17.49" fill="#5F584D"/><path d="M138.415 350.48c.758-1.317 4.8-8.54 4.8-13.198v9.53c-2.12.76-3.825 2.062-4.8 3.667m4.8-3.67v-20.53h4.322v19.8c-1.548 0-3.014.263-4.322.733" fill="#6C655C"/><path d="M147.537 325.878h-14.89c2.437-4.36 8.186-7.026 14.89-7.026v7.426m0 32.872H135.45a2.12 2.12 0 0 1-2.12-2.12h14.207v2.12m0-8.462h-9.245c.04-.07.08-.14.123-.21.975-1.604 2.68-2.907 4.8-3.667a12.807 12.807 0 0 1 4.322-.73v4.61" fill="#3C3934"/><path d="M168.325 373.38a8.043 8.043 0 0 0-2.037-.26h-.663.664c.7 0 1.384.09 2.034.26" fill="#67635C"/><path d="M147.537 357.03H133.33c0-1.17.95-2.12 2.12-2.12h12.087v2.12" fill="#766F66"/><path d="M168.288 401.848h-3.865v-21.935a6.376 6.376 0 0 0 1.882-4.53l-.088-2.262h-.592.663c.704 0 1.387.09 2.037.26-.024.297-.037.596-.037.897v27.572" fill="#3C3934"/><path d="M147.037 401.848v-30.98 10.908h12.878c1.76 0 3.853-.712 5.008-1.863v21.935h-17.886z" fill="#504A42"/><path d="M164.423 379.913v-3.976c0-.36-.038-.712-.11-1.052a6.406 6.406 0 0 0 1.312-1.764h.592l.088 2.263c0 1.77-.72 3.373-1.882 4.53" fill="#35342F"/><path d="M148.137 381.776v-10.908 5.773h11.778a6.37 6.37 0 0 0 4.4-1.754c.07.34.108.69.108 1.052v3.976a6.37 6.37 0 0 1-4.508 1.863h-11.778z" fill="#47423B"/><path d="M166.305 370.3v-.004.003m0-.02v-.033.033m0-.032l-.157-4.046.157 4.046" fill="#67635C"/><path d="M170.416 362.332c.062-.31.094-.63.094-.96l-.157-4.064.158 4.064c0 .33-.03.65-.093.96m-.97-28.47l-.137-3.533.138 3.532m-.512-13.212l-.145-3.774a4.85 4.85 0 0 0 .003 0l.144 3.77v.003" fill="#979687"/><path d="M169.24 328.51l-.304-7.86v-.003l.305 7.863" fill="#67635C"/><path d="M170.354 357.308l-.07-1.818.07 1.818m-1.044-26.978l-.07-1.82.07 1.82" fill="#A8AB9D"/><path d="M170.284 355.49l-.836-21.627.836 21.627" fill="#67635C"/><path d="M168.692 315.897l-.005-.024.005.024m-.007-.036l-.003-.01.003.01m-.008-.034" fill="#979687"/><path d="M164.055 312.023l-.015-.383.015.383" fill="#67635C"/><path d="M160.833 306.094" fill="#C0BEAD"/><path d="M161.323 306.40700000000004" fill="#979687"/><path d="M164.035 311.392" fill="#67635C"/><path d="M166.148 366.202l-2.093-54.18v.01a4.854 4.854 0 0 1 4.622 3.793c0 .008.003.016.005.024l.003.01c0 .004 0 .01.002.012l.005.024c.065.317.1.644.1.98l1.718 44.495c0 .33-.032.65-.094.96a4.85 4.85 0 0 1-4.268 3.847v.024" fill="#3C3934"/><path d="M159.915 377.04h-12.378v-71.794h10.114a6.372 6.372 0 0 1 4.764 2.13 6.39 6.39 0 0 1 1.627 4.264l2.266 58.608a6.405 6.405 0 0 1-.71 2.873 5.8 5.8 0 0 1-1.28 1.766 6.372 6.372 0 0 1-4.4 1.756m-12.378-19.61v2.12h12.087a2.12 2.12 0 0 0 0-4.24h-12.087v2.12m9.243-6.342l-.12-.21c-.76-1.314-4.8-8.538-4.8-13.196V326.28h10.57c-2.44-4.36-8.19-7.426-14.89-7.426v31.836h9.24" fill="#504A42"/><path d="M156.658 350.48c-.975-1.606-2.68-2.91-4.8-3.67v-9.528c0 4.658 4.042 11.882 4.8 13.197m-9.12-1.228v-28.495 5.52h4.32v20.534a12.795 12.795 0 0 0-4.32-.73v3.173" fill="#615A51"/><path d="M162.427 325.978h-15.39v-6.926c6.703 0 12.95 2.865 15.39 7.226m-2.803 32.872h-12.087v-2.12h14.205a2.12 2.12 0 0 1-2.118 2.12m-2.844-8.462h-9.243v-4.61c1.547 0 3.013.263 4.32.733 2.12.76 3.826 2.065 4.8 3.67.043.07.084.14.123.21" fill="#2C2C28"/><path d="M161.742 357.03h-14.205v-2.12h12.087c1.17 0 2.118.95 2.118 2.12" fill="#615A51"/><path d="M168.288 374.276v27.672h23.386v-38.392H179c-5.916 0-10.712 4.8-10.712 10.72z" fill="#44403A"/><path d="M181.987 367.31v34.538l22.01.2v-41.495H188.24c-3.73 0-6.253 3.025-6.253 6.758z" fill="#59534A"/><path d="M181.487 372.61a8.496 8.496 0 0 1-2.508-6.04l.115-3.014h.79a8.485 8.485 0 0 0 1.747 2.352 6.752 6.752 0 0 0-.146 1.403v5.3" fill="#3C3934"/><path d="M187.496 375.093c-2.346 0-4.77-.948-6.31-2.483v-5.3c0-.48.05-.95.147-1.402 1.526 1.45 3.89 2.34 6.163 2.34h16.5v6.845h-16.5z" fill="#504A42"/><path d="M182.13 282.115a6.468 6.468 0 0 0-6.465 6.47l-2.593 59.31c0 3.575 3.196 6.472 6.766 6.472h12.528v-72.252H182.13z" fill="#59534A"/><path d="M190.514 272.982c-4.703 0-8.516 3.916-8.516 8.622l-3.12 78.122c0 4.707 3.913 8.323 8.618 8.323h16.6l-.1-94.97-13.482-.1z" fill="#6B6357"/><path d="M191.674 333.655s6.562-11.018 6.562-17.87c0-6.85 2.88 1.502 2.88 1.502l-.684 14.828-8.758 1.54" fill="#7A7267"/><path d="M203.996 331.74v-37.983c-3.18 0-5.76 2.58-5.76 5.764v32.22h5.76" fill="#7A7267"/><path d="M184.147 301.118h19.85v-9.9c-8.937 0-16.6 4.086-19.85 9.9zm19.85 40.99H185.06a2.825 2.825 0 0 0 2.824 2.825h16.112v-2.825m-12.322-8.153h12.322v-6.446c-5.547 0-10.303 2.834-12.322 6.444z" fill="#44403A"/><path d="M204.096 339.082h-16.212c-1.56 0-2.823 1.366-2.823 2.926h19.037v-2.726" fill="#847C73"/><path d="M228.992 363.256c5.916 0 11.012 5.1 11.012 11.02v27.672h-23.687v-38.692l12.675.3" fill="#44403A"/><path d="M226.106 367.31v34.538l-22.11.2v-41.495h15.756c3.73 0 6.354 3.025 6.354 6.758z" fill="#59534A"/><path d="M226.506 372.61v-5.3c0-1.39-.42-2.68-1.138-3.754h3.53l.116 3.015c0 2.36-.96 4.498-2.508 6.04" fill="#3C3934"/><path d="M220.592 360.605h-.005.005m-.078-.01h-.012.012m-.045-.004h-.018.016m-.036-.002l-.02-.002c.007 0 .013 0 .02.002m-.047-.005h-.02.02m-.036-.003l-.03-.003c.01 0 .02 0 .03.002m-.046-.006c-.008 0-.015 0-.024-.002l.025.002m-.035-.003h-.034.034m-.048-.002l-.03-.003c.01 0 .02 0 .03.002m-.044-.004c-.01 0-.018 0-.028-.002.01 0 .02 0 .028.003m-.04-.003h-.034.034m-.044-.002h-.03.03m-.04 0c-.01 0-.023 0-.036-.002h.037m-.047 0c-.012 0-.024 0-.036-.002h.036m-.042 0h-.034.034m-.043 0l-.037-.002h.037m-.045 0h-.034.034m-.04 0h-.038.038m-.046 0h-.04.04" fill="#66A3C6"/><path d="M203.996 375.093v-14.54h15.842c.06 0 .073.002.085.002l.085.002.086.004.084.007.092.006.08.007.084.007.068.007.085.01a6.75 6.75 0 0 1 4.78 2.952c.72 1.074.84 2.365.84 3.755v5.3c-1.54 1.535-3.365 2.484-5.71 2.484h-16.5z" fill="#504A42"/><path d="M215.626 282.115h10.236a6.468 6.468 0 0 1 6.465 6.47l2.293 59.31a6.47 6.47 0 0 1-6.466 6.472h-12.528v-72.252" fill="#44403A"/><path d="M217.478 272.982c4.703 0 8.416 3.916 8.416 8.623l3.22 78.12c0 4.708-3.913 8.324-8.617 8.324h-16.5v-95.07h13.48z" fill="#59534A"/><path d="M216.318 333.655s-6.562-11.018-6.562-17.87c0-6.85-2.88 1.502-2.88 1.502l.684 14.828 8.758 1.54" fill="#6E655B"/><path d="M203.996 331.74v-37.983c3.18 0 5.76 2.58 5.76 5.764v32.22h-5.76" fill="#6E655B"/><path d="M203.996 291.218c8.936 0 16.598 4.086 19.85 9.9h-19.85v-9.9m18.934 50.89a2.823 2.823 0 0 1-2.822 2.825h-16.112v-2.825h18.935zm-6.612-8.153h-12.322v-6.446c5.547 0 10.304 2.834 12.322 6.444z" fill="#32302C"/><path d="M203.996 339.082h16.112c1.56 0 2.823 1.366 2.823 2.926h-18.933v-2.726" fill="#6E655B"/></g><g><path d="M54.974 289.685s.31 2.32-1.932 2.973c-2.24.654-16.806 5.606-19.14 8.13-2.335 2.522-4.763 35.036-5.23 41.11-.466 6.072 1.4 6.948 1.4 6.948v10.38l33.1-2.193.1-67.348h-8.298z" fill="#BBB7A5"/><path d="M53.876 321.443c0 5.193 4.107 9.403 9.296 9.403v-41.16h-8.198s.218 1.677-1.098 2.58v29.177z" fill="#DAD7C3"/><path d="M16.128 357.992c0 4.824 3.91 9.035 8.73 9.035H63.07v-9.035H16.128z" fill="#989689"/><path d="M63.272 357.992H16.128c0-4.825 3.91-8.736 8.73-8.736H63.27v8.736" fill="#BBB7A5"/><path d="M63.172 313.96v-24.275h-8.198s.218 1.678-1.098 2.58v25.16c3.208-.284 7.072-1.14 9.396-3.464" fill="#F9F8E8"/><path d="M71.57 289.685s-.31 2.32 1.932 2.973c2.24.654 16.607 5.706 18.94 8.23 2.335 2.522 4.963 34.936 5.43 41.01.466 6.072-1.9 6.948-1.9 6.948l.5 9.18-33.4.007-.1-68.348h8.6z" fill="#989689"/><path d="M72.968 321.443c0 5.193-4.807 9.403-9.996 9.403v-41.16h8.6s.08 1.677 1.396 2.58v29.177z" fill="#DAD7C3"/><path d="M110.416 357.992c0 4.824-3.908 9.035-8.73 9.035H62.973l.1-9.035h47.344z" fill="#BBB7A5"/><path d="M110.416 357.992c0-4.825-3.908-8.736-8.73-8.736H63.273v8.736h47.144z" fill="#989689"/><path d="M63.072 289.685h8.5s.08 1.678 1.396 2.58v25.16c-3.208-.284-7.572-1.14-9.895-3.464v-24.274zm-19.18 53.335h22.97c2.146 0 4.48.653 4.48 1.867 0 3.267-12.978 6.82-20.635 6.82-7.655 0-13.07-4.343-13.07-4.343l6.255-4.345" fill="#F9F8E8"/><path d="M30.073 348.846c2.988 1.507 7.782 1.884 10.497.41l.004-.002c1.563-5.77 8.215-6.235 8.215-6.235l-6.36-7.197 1.432-39.94c-4.33 1.668-8.762 3.606-9.962 4.903-2.333 2.523-4.76 35.037-5.227 41.11-.467 6.073 1.4 6.95 1.4 6.95m53.22-7.322l-5.537 1.495s-2.82.84-6.74 2.94c-3.922 2.103-18.16 2.193-18.16 4.227s2.146 2.315 3.92 2.315 14.38.466 17.6-.795c3.222-1.26 11.6-2.452 11.6-2.452l-2.682-7.732" fill="#DAD7C3"/><path d="M85.975 349.256c-1.568-5.773-8.22-6.237-8.22-6.237l6.36-7.197-1.433-39.94c4.328 1.668 9.16 3.606 10.36 4.903 2.335 2.523 4.763 34.937 5.23 41.01.466 6.073-1.8 7.05-1.8 7.05-2.988 1.506-7.782 1.883-10.497.41z" fill="#BBB7A5"/><path d="M63.273 301.124v-11.44h-8.3H71.57h-8.297v11.44m-9.396-8.85v-.008c1.023-.702 1.12-1.874 1.11-2.36v.055c0 .516-.123 1.63-1.11 2.307v.007" fill="#6EADD3"/><path d="M53.876 296.595v-4.322 4.322" fill="#AFAD9C"/><path d="M63.273 301.124c-3.805 0-7.193-1.77-9.397-4.53v-4.328c.987-.677 1.11-1.79 1.11-2.305v-.053c-.002-.134-.012-.216-.012-.22h8.298v11.438" fill="#E9E9D7"/><path d="M72.563 292.19c-.89-.682-1.006-1.734-1.006-2.23 0 .496.116 1.548 1.006 2.23" fill="#6EADD3"/><path d="M63.273 301.124v-11.44h8.298c0 .007-.012.11-.012.277 0 .497.116 1.55 1.006 2.23.034.027.07.05.105.077v4.328a11.993 11.993 0 0 1-9.396 4.53" fill="#E9E9D7"/><path d="M71.983 282.817a2.314 2.314 0 0 0 1.94 2.634 2.31 2.31 0 0 0 2.633-1.94l.69-4.56a2.316 2.316 0 0 0-1.942-2.633 2.315 2.315 0 0 0-2.632 1.942l-.69 4.56" fill="#989689"/><path d="M72.978 290.772a1.255 1.255 0 0 0 2.508 0v-7.527a1.255 1.255 0 0 0-2.508 0v7.527m-18.418-7.955a2.312 2.312 0 1 1-4.572.694l-.69-4.56a2.316 2.316 0 0 1 1.942-2.633c1.263-.19 2.44.68 2.632 1.942l.69 4.56" fill="#989689"/><path d="M53.565 290.772a1.253 1.253 0 0 1-2.507 0v-7.527a1.254 1.254 0 0 1 2.507 0v7.527" fill="#989689"/><path d="M55.923 264.646c-.037-4.06 3.222-7.384 7.28-7.42h.07v7.42h-7.35" fill="#DAD7C3"/><path d="M70.615 264.646h-7.643v-7.42c4.027 0 7.61 3.245 7.648 7.283l-.005.135z" fill="#F9F8E8"/><path d="M74.614 282.05c0 6.27-5.078 11.35-11.342 11.35s-11.342-5.08-11.342-11.35v-9.007c0-6.27 5.078-11.35 11.342-11.35s11.342 5.08 11.342 11.35v9.007" fill="#BBB7A5"/><path d="M51.93 282.05c0 6.27 4.878 11.35 11.142 11.35v-31.707c-6.264 0-11.142 5.08-11.142 11.35v9.007z" fill="#DAD7C3"/><path d="M51.93 276.655c.574-4.568 3.81-7.43 10.097-7.43h1.045v-7.53c-6.272.05-11.142 5.11-11.142 11.348v3.612z" fill="#F9F8E8"/><path d="M63.272 261.695v7.33h1.248c6.226 0 9.464 3.003 10.094 7.473v-3.455c0-6.27-5.037-11.35-11.25-11.35l-.092.002z" fill="#DAD7C3"/><path d="M64.624 274.033a1.352 1.352 0 1 1-2.703 0 1.352 1.352 0 0 1 2.704 0" fill="#F9F8E8"/><path d="M64.624 274.033c0-.747-.605-1.353-1.352-1.353v2.705c.747 0 1.352-.605 1.352-1.352" fill="#DAD7C3"/><path d="M12.016 371.03h103.012v13.157H12.016V371.03z" fill="#CD9C55"/><path d="M7.964 367.035H116.94v4.003H7.963v-4.003z" fill="#B0854B"/><path d="M4.01 388.89h118.023v13.058H4.01V388.89z" fill="#59534A"/><path d="M.966 383.987H124.01v5.003H.967v-5.003z" fill="#44403A"/></g><g><path d="M200.683 56.284l1.39-1.144a2.27 2.27 0 0 0 .804-1.454.556.556 0 0 0-.12-.426l-1.622-1.968a.542.542 0 0 0-.395-.2 2.252 2.252 0 0 0-1.582.51l-4.44 3.655 5.965 1.027m-12.935-2.282l1.388-1.143c.442-.366.728-.88.805-1.457a.534.534 0 0 0-.12-.425l-1.62-1.97a.55.55 0 0 0-.394-.202 2.267 2.267 0 0 0-1.582.512l-4.44 3.656L187.75 54m26.888 18.53l1.39-1.145c.44-.364 1-.546 1.58-.51.155.006.296.08.394.2l1.623 1.968c.096.12.14.275.12.425a2.285 2.285 0 0 1-.806 1.456l-4.44 3.656.137-6.05m-.76 13.694l1.388-1.144a2.268 2.268 0 0 1 1.583-.51c.152.008.294.08.393.2l1.625 1.97a.56.56 0 0 1 .12.425 2.273 2.273 0 0 1-.807 1.454l-4.438 3.653.137-6.05" fill="#FFF"/><path d="M165.813 53.716a.548.548 0 0 0 .353.426l22.16 8.256 10.176 5.995 13.217-10.885-41.934-7.174a.547.547 0 0 0-.443.117l-3.34 2.753a.537.537 0 0 0-.19.514m44.647 53.803a.55.55 0 0 1-.35-.428l-3.85-23.333-3.934-11.138 13.22-10.884-1.004 42.53a.542.542 0 0 1-.2.41l-3.34 2.75a.54.54 0 0 1-.54.09m-31.324-22.493l-14.43-1.976a.537.537 0 0 0-.42.116l-2.087 1.72a.55.55 0 0 0 .03.87L172.59 92.8c1.207-1.52 4.98-5.877 6.55-7.775m3.162 3.345l-.826 14.54a.542.542 0 0 1-.2.39l-2.086 1.72a.55.55 0 0 1-.85-.196l-4.925-11.517c1.723-.893 6.725-3.76 8.887-4.937" fill="#332F2E"/><path d="M225.66 46.025c-3.498 1.215-6.276 3.484-6.398 3.584h-.002l-36.31 29.9c-2.046 1.688-3.1 3.14-3.126 3.176l-8.57 10.57a.55.55 0 0 0 .088.78l.546.666c.068.13.183.232.327.274.14.046.293.032.425-.036l11.988-6.37c.068-.03 1.697-.79 3.745-2.476l36.31-29.9c.115-.096 2.878-2.39 4.746-5.59 1.86-3.192 2.19-4.308 1.455-5.042-.578-.86-1.74-.75-5.227.465" fill="#FFF"/><path d="M169.64 96.54a.483.483 0 0 1-.616-.745l12.58-10.36a.484.484 0 0 1 .614.747L169.64 96.54m54.735-45.762a3.636 3.636 0 0 1 .44 3.947l.032-.02a3.332 3.332 0 0 0 .454-4.688 3.327 3.327 0 0 0-4.684-.453c-.01.008-.017.017-.028.025a3.637 3.637 0 0 1 3.788 1.187" fill="#332F2E"/></g><g><path d="M908.042 218.117h34.902v36.876h-34.902v-36.876z" fill="#E56E42"/><path d="M925.52 250.768c-.08 0-.154-.008-.227-.01-.08.002-.153.01-.226.01h-.007c-7.587-.07-13.677-6.282-13.61-13.873.072-7.548 6.21-13.616 13.736-13.616h.08v-.004h.047v.002h.08c7.527 0 13.67 6.067 13.737 13.615.073 7.59-6.024 13.802-13.604 13.873h-.007" fill="#BB5933"/><path d="M925.32 226.12v-.003h-.054v.002c-5.996-.03-10.895 4.794-10.948 10.8h21.95c-.06-6.006-4.96-10.83-10.95-10.8" fill="#4B2F1C"/><path d="M925.32 236.92h-11.002c-.06 6.024 4.78 10.953 10.795 11.008l.18-.007c.06.004.113.01.18.01 6.016-.056 10.848-4.985 10.795-11.008h-10.95" fill="#3C291B"/><path d="M926.025 237.01a.706.706 0 0 1-1.412 0 .704.704 0 0 1 1.41 0" fill="#EDE3B3"/><path d="M925.978 237.002a.366.366 0 0 1-.52.047.372.372 0 0 1-.045-.526l3-3.596a.373.373 0 0 1 .527-.048.383.383 0 0 1 .047.525l-3.01 3.595" fill="#EDE3B3"/><path d="M932.66 242.06a.332.332 0 0 1-.46.082l-8.398-5.86a.332.332 0 0 1-.08-.46.332.332 0 0 1 .46-.08l8.392 5.86c.153.105.186.31.087.46" fill="#EDE3B3"/><path d="M897.712 254.493h55.155v79.026h-55.155V254.49z" fill="#E56E42"/><path d="M897.712 301.967h55.155v4.076h-55.155v-4.076z" fill="#EDE3B3"/><path d="M948.28 258.27h4.587v16.92h-4.586v-16.92zm-2.548 75.25v-8.858s-1.185.386-1.737 1.24c-.552.853-.86 1.65-.86 1.65s-.298-.797-.85-1.65c-.553-.854-1.738-1.24-1.738-1.24v8.857h-1.956v-8.86s-1.183.387-1.735 1.24c-.553.854-.852 1.65-.852 1.65s-.306-.796-.86-1.65c-.545-.853-1.73-1.24-1.73-1.24v8.858h-1.963v-8.858s-1.185.386-1.738 1.24c-.546.853-.852 1.65-.852 1.65s-.3-.797-.852-1.65c-.552-.854-1.737-1.24-1.737-1.24v8.857h-1.955v-8.858s-1.184.385-1.737 1.24c-.552.852-.858 1.65-.858 1.65s-.3-.798-.853-1.65c-.553-.855-1.737-1.24-1.737-1.24v8.856h-1.957v-8.858s-1.185.386-1.737 1.24c-.552.853-.852 1.65-.852 1.65s-.306-.797-.86-1.65c-.544-.854-1.73-1.24-1.73-1.24v8.857h-1.962v-8.858s-1.185.386-1.737 1.24c-.546.853-.852 1.65-.852 1.65s-.3-.797-.852-1.65c-.55-.854-1.735-1.24-1.735-1.24v8.857h-1.964v-8.858s-1.184.386-1.73 1.24c-.552.853-.86 1.65-.86 1.65s-.297-.797-.85-1.65c-.552-.854-1.437-1.24-1.437-1.24v8.857-27.277h4.226v16.38c.16-.065.265-.103.305-.115l1.178-.383.153-.05.147.05 1.178.384c.154.05 1.478.505 2.244 1.564.765-1.058 2.09-1.512 2.243-1.562l1.178-.384.146-.05.154.05 1.178.384c.154.05 1.48.504 2.244 1.563.765-1.058 2.083-1.512 2.236-1.562l1.185-.384.146-.05.148.05 1.186.383c.153.05 1.47.504 2.236 1.563.77-1.058 2.09-1.512 2.242-1.562l1.178-.384.153-.05.146.05 1.178.384c.16.05 1.478.504 2.243 1.563.767-1.058 2.09-1.512 2.244-1.562l1.178-.384.148-.05.153.05 1.18.385c.152.05 1.476.504 2.242 1.563.765-1.058 2.09-1.512 2.243-1.562l1.178-.384.146-.05.145.05 1.185.384c.153.05 1.47.504 2.236 1.563.772-1.06 2.09-1.513 2.243-1.563l1.185-.384.146-.05.148.05 1.185.384c.026.01.12.042.24.09v-16.355h4.585v18.42s-1.185.385-1.73 1.24c-.553.852-.86 1.65-.86 1.65s-.3-.798-.85-1.65c-.553-.855-1.738-1.24-1.738-1.24v8.856h-1.958zm2.55-58.33h4.585v27.277h-4.586V275.19zm-50.27-16.92h4.226v44.197h-4.226V258.27z" fill="#BB5933"/><path d="M948.28 302.467h4.587v3.776h-4.586v-3.776zm-50.568 0h4.526v3.776h-4.526v-3.776z" fill="#B7B08A"/><path d="M945.732 324.662s-1.185.386-1.737 1.24c-.552.853-.86 1.65-.86 1.65s-.298-.797-.85-1.65c-.553-.854-1.738-1.24-1.738-1.24v8.857h-1.956v-8.86s-1.183.387-1.735 1.24c-.553.854-.852 1.65-.852 1.65s-.306-.796-.86-1.65c-.545-.853-1.73-1.24-1.73-1.24v8.858h-1.963v-8.858s-1.185.386-1.738 1.24c-.546.853-.852 1.65-.852 1.65s-.3-.797-.852-1.65c-.552-.854-1.737-1.24-1.737-1.24v8.857h-1.955v-8.858s-1.184.385-1.737 1.24c-.552.852-.858 1.65-.858 1.65s-.3-.798-.853-1.65c-.553-.855-1.737-1.24-1.737-1.24v8.856h-1.957v-8.858s-1.185.386-1.737 1.24c-.552.853-.852 1.65-.852 1.65s-.306-.797-.86-1.65c-.544-.854-1.73-1.24-1.73-1.24v8.857h-1.962v-8.858s-1.185.386-1.737 1.24c-.546.853-.852 1.65-.852 1.65s-.3-.797-.852-1.65c-.55-.854-1.735-1.24-1.735-1.24v8.857h-7.142v58.328h55.155v-58.33h-7.135v-8.856z" fill="#E56E42"/><path d="M897.712 380.95h55.155v11.098h-55.155v-11.1z" fill="#EDE3B3"/><path d="M912.128 186.943h26.923v31.174h-26.92v-31.174z" fill="#E08551"/><path d="M912.128 178.002h26.823v8.94h-13.41c-4.47 0-13.41.2-13.41.2v-9.14z" fill="#43825A"/><path d="M912.028 199.928h27.023v3.144h-27.02v-3.144z" fill="#EDE3B3"/><path d="M925.093 178.002v-60.528l-9.584 60.528h9.782" fill="#6ABD97"/><path d="M925.093 117.474l9.977 60.728-9.977-.1v-60.628z" fill="#4C9168"/><path d="M899.922 242.373l-2.21 12.776h4.413l-2.203-12.778m8.812-37.032l-.992 12.777h1.99l-.998-12.777m33.11 0l-.99 12.777h1.99l-1-12.777m3.003 44.463l-2.203 5.346h4.413l-2.21-5.348m-6.517 0l-2.21 5.347h4.414l-2.203-5.348m-6.52 0l-2.204 5.347h4.412l-2.21-5.348m-6.515 0l-2.21 5.347h4.413l-2.203-5.348m-6.523 0l-2.203 5.347h4.413l-2.21-5.348m-6.515 0l-2.21 5.347h4.413l-2.203-5.348m-6.523 0l-2.203 5.347h4.41l-2.21-5.348m44.934-7.43l-2.21 12.777h4.413l-2.203-12.778" fill="#EDE3B3"/><path d="M933.02 392.048v-11.506c0-4.546-3.188-8.232-7.727-8.232-4.546 0-8.226 3.686-8.226 8.232v11.506l16.052-.1" fill="#3C291B"/><path d="M898.012 364.967h55.155l.1 2.088h-55.255v-2.088z" fill="#EDE3B3"/><path d="M900.3 327.553s-.298-.798-.85-1.65c-.553-.855-1.738-1.24-1.738-1.24v67.285h5.278v-67.286s-1.285.386-1.83 1.24c-.553.853-.86 1.65-.86 1.65zm49.978 0s-.3-.798-.852-1.65c-.552-.855-1.437-1.24-1.437-1.24v67.285h5.076v-67.286s-1.385.386-1.93 1.24c-.553.853-.86 1.65-.86 1.65z" fill="#E08551"/><path d="M895.316 333.52v-8.858s-1.185.386-1.737 1.24c-.554.853-.854 1.65-.854 1.65s-.306-.797-.858-1.65c-.554-.854-1.732-1.24-1.732-1.24v8.857h-1.963v-8.86s-1.185.387-1.737 1.24c-.553.854-.852 1.65-.852 1.65s-.306-.796-.852-1.65c-.553-.853-1.737-1.24-1.737-1.24v8.858h-1.964v-8.858s-1.183.386-1.73 1.24c-.552.853-.86 1.65-.86 1.65s-.297-.797-.85-1.65c-.552-.854-1.737-1.24-1.737-1.24v8.857H873.9v-8.858s-1.186.385-1.74 1.24c-.55.852-.85 1.65-.85 1.65s-.307-.798-.86-1.65c-.55-.855-1.736-1.24-1.736-1.24v8.856h-1.957v-8.858s-1.185.386-1.737 1.24c-.552.853-.852 1.65-.852 1.65s-.306-.797-.86-1.65c-.544-.854-1.73-1.24-1.73-1.24v8.857h-1.962v-8.858s-1.185.386-1.737 1.24c-.548.853-.854 1.65-.854 1.65s-.3-.797-.852-1.65c-.553-.854-1.737-1.24-1.737-1.24v8.857h-1.957v-8.858s-1.184.386-1.736 1.24c-.553.853-.86 1.65-.86 1.65s-.298-.797-.85-1.65c-.553-.854-1.738-1.24-1.738-1.24v8.857h-3.248v58.328h53.664v-58.33h-2.396z" fill="#CE5B33"/><path d="M897.712 271.415h55.155v3.776h-55.155v-3.774zm0-16.922h55.155v3.577h-55.155v-3.577zm10.23-36.476h35.102v3.034h-35.102v-3.032z" fill="#EDE3B3"/><path d="M909.526 295.883v-24.455h3.38c.62-4.04 3.715-7.87 6.79-10.053 3.048-2.165 4.405-7.45 4.42-7.503l1.177-4.67 1.17 4.67c.015.052 1.392 5.35 4.427 7.503 3.068 2.183 6.17 6.012 6.79 10.053h3.38v24.455h-31.534" fill="#EDE3B3"/><path d="M935.735 273.978c0-3.343-2.615-8.214-5.85-10.51-3.234-2.295-4.592-6.655-4.592-6.655s-1.365 4.36-4.6 6.655c-3.227 2.296-5.843 7.167-5.843 10.51h-3.028v18.99h26.935v-18.99h-3.022" fill="#E56E42"/><path d="M926.997 274.974v-4.614c0-1.102-.766-1.996-1.704-1.996-.945 0-1.704.894-1.704 1.996v4.614h3.406" fill="#3C291B"/><path d="M897.712 391.848h-8.146l5.75-58.33h2.396v58.33" fill="#A2492C"/><path d="M952.867 391.848h53.17v-58.33h-2.754v-8.856s-1.185.386-1.737 1.24c-.546.853-.852 1.65-.852 1.65s-.3-.797-.852-1.65c-.552-.854-1.737-1.24-1.737-1.24v8.857h-1.957v-8.86s-1.185.387-1.737 1.24c-.55.854-.857 1.65-.857 1.65s-.3-.796-.852-1.65c-.55-.853-1.736-1.24-1.736-1.24v8.858h-1.956v-8.858s-1.185.386-1.737 1.24c-.552.853-.85 1.65-.85 1.65s-.308-.797-.86-1.65c-.546-.854-1.73-1.24-1.73-1.24v8.857h-1.964v-8.858s-1.184.385-1.737 1.24c-.547.852-.853 1.65-.853 1.65s-.3-.798-.852-1.65c-.552-.855-1.737-1.24-1.737-1.24v8.856h-1.963v-8.858s-1.185.386-1.73 1.24c-.553.853-.86 1.65-.86 1.65s-.3-.797-.85-1.65c-.554-.854-1.738-1.24-1.738-1.24v8.857h-1.957v-8.858s-1.186.386-1.738 1.24c-.552.853-.852 1.65-.852 1.65s-.306-.797-.86-1.65c-.544-.854-1.73-1.24-1.73-1.24v8.857h-1.962v-8.858s-1.185.386-1.738 1.24c-.545.853-.85 1.65-.85 1.65s-.308-.797-.853-1.65c-.553-.854-1.737-1.24-1.737-1.24v8.857h-2.403v58.328z" fill="#CE5B33"/><path d="M961.02 391.848h-8.153v-58.33h2.403l5.75 58.33" fill="#A2492C"/><path d="M939.37 271.415v-8.352c0-1.995 1.637-3.61 3.653-3.61 2.017 0 3.648 1.615 3.648 3.61v8.352h-7.3m-35.462 0v-8.352c0-1.995 1.638-3.61 3.654-3.61 2.017 0 3.654 1.615 3.654 3.61v8.352h-7.308" fill="#3C291B"/><path d="M927.043 185.324c-1.23-.747-1.75-2.51-1.75-2.51s-.52 1.763-1.75 2.51c-1.232.747-2.23 2.334-2.23 3.422v11.182h7.96v-11.182c0-1.088-.998-2.675-2.23-3.422" fill="#EDE3B3"/><path d="M922.844 198.393v-9.646c0-.475.645-1.594 1.49-2.11.366-.22.686-.494.96-.787.272.293.585.566.95.787.853.516 1.49 1.635 1.49 2.11v9.646h-4.89" fill="#E56E42"/><path d="M917.86 185.324c-1.233-.747-1.752-2.51-1.752-2.51s-.52 1.763-1.75 2.51c-1.232.747-2.23 2.334-2.23 3.422v11.182h7.96v-11.182c0-1.088-.998-2.675-2.23-3.422" fill="#EDE3B3"/><path d="M913.666 198.393v-9.646c0-.475.638-1.594 1.484-2.11a4.46 4.46 0 0 0 .958-.787c.273.293.592.566.952.787.852.516 1.49 1.635 1.49 2.11v9.646h-4.884" fill="#E56E42"/><path d="M936.228 185.324c-1.23-.747-1.75-2.51-1.75-2.51s-.52 1.763-1.75 2.51c-1.24.747-2.23 2.334-2.23 3.422v11.182h7.953v-11.182c0-1.088-.99-2.675-2.22-3.422" fill="#EDE3B3"/><path d="M932.028 198.393v-9.646c0-.475.64-1.594 1.49-2.11.367-.22.68-.494.96-.787.272.293.585.566.95.787.853.516 1.492 1.635 1.492 2.11v9.646h-4.892m-1.53 4.68h8.453v14.844h-8.45v-14.845zm-18.37 0h7.96v14.844h-7.96v-14.845z" fill="#E56E42"/><path d="M925.293 108.216l1.544 4.997 5.23-.07-4.272 3.017 1.684 4.952-4.188-3.13-4.187 3.13 1.678-4.952-4.267-3.018 5.225.07 1.55-4.996" fill="#AA2534"/><path d="M929.48 121.112l-1.685-4.952 4.273-3.018-5.23.07-1.545-4.996v9.765l4.186 3.133" fill="#82222B"/></g></g></svg>